<?xml version="1.0" encoding="utf-8" standalone="no"?>
<!DOCTYPE svg PUBLIC "-//W3C//DTD SVG 1.1//EN"
  "http://www.w3.org/Graphics/SVG/1.1/DTD/svg11.dtd">
<!-- Created with matplotlib (https://matplotlib.org/) -->
<svg height="576pt" version="1.1" viewBox="0 0 720 576" width="720pt" xmlns="http://www.w3.org/2000/svg" xmlns:xlink="http://www.w3.org/1999/xlink">
 <defs>
  <style type="text/css">
*{stroke-linecap:butt;stroke-linejoin:round;}
  </style>
 </defs>
 <g id="figure_1">
  <g id="patch_1">
   <path d="M 0 576 
L 720 576 
L 720 0 
L 0 0 
z
" style="fill:#ffffff;"/>
  </g>
  <g id="axes_1">
   <g id="patch_2">
    <path d="M 90 504 
L 648 504 
L 648 69.12 
L 90 69.12 
z
" style="fill:#ffffff;"/>
   </g>
   <g id="matplotlib.axis_1">
    <g id="xtick_1">
     <g id="line2d_1">
      <defs>
       <path d="M 0 0 
L 0 3.5 
" id="mff5e6e7e48" style="stroke:#000000;stroke-width:0.8;"/>
      </defs>
      <g>
       <use style="stroke:#000000;stroke-width:0.8;" x="115.363636" xlink:href="#mff5e6e7e48" y="504"/>
      </g>
     </g>
     <g id="text_1">
      <!-- 0 -->
      <defs>
       <path d="M 31.78125 66.40625 
Q 24.171875 66.40625 20.328125 58.90625 
Q 16.5 51.421875 16.5 36.375 
Q 16.5 21.390625 20.328125 13.890625 
Q 24.171875 6.390625 31.78125 6.390625 
Q 39.453125 6.390625 43.28125 13.890625 
Q 47.125 21.390625 47.125 36.375 
Q 47.125 51.421875 43.28125 58.90625 
Q 39.453125 66.40625 31.78125 66.40625 
z
M 31.78125 74.21875 
Q 44.046875 74.21875 50.515625 64.515625 
Q 56.984375 54.828125 56.984375 36.375 
Q 56.984375 17.96875 50.515625 8.265625 
Q 44.046875 -1.421875 31.78125 -1.421875 
Q 19.53125 -1.421875 13.0625 8.265625 
Q 6.59375 17.96875 6.59375 36.375 
Q 6.59375 54.828125 13.0625 64.515625 
Q 19.53125 74.21875 31.78125 74.21875 
z
" id="DejaVuSans-48"/>
      </defs>
      <g transform="translate(112.182386 518.598438)scale(0.1 -0.1)">
       <use xlink:href="#DejaVuSans-48"/>
      </g>
     </g>
    </g>
    <g id="xtick_2">
     <g id="line2d_2">
      <g>
       <use style="stroke:#000000;stroke-width:0.8;" x="205.948052" xlink:href="#mff5e6e7e48" y="504"/>
      </g>
     </g>
     <g id="text_2">
      <!-- 5 -->
      <defs>
       <path d="M 10.796875 72.90625 
L 49.515625 72.90625 
L 49.515625 64.59375 
L 19.828125 64.59375 
L 19.828125 46.734375 
Q 21.96875 47.46875 24.109375 47.828125 
Q 26.265625 48.1875 28.421875 48.1875 
Q 40.625 48.1875 47.75 41.5 
Q 54.890625 34.8125 54.890625 23.390625 
Q 54.890625 11.625 47.5625 5.09375 
Q 40.234375 -1.421875 26.90625 -1.421875 
Q 22.3125 -1.421875 17.546875 -0.640625 
Q 12.796875 0.140625 7.71875 1.703125 
L 7.71875 11.625 
Q 12.109375 9.234375 16.796875 8.0625 
Q 21.484375 6.890625 26.703125 6.890625 
Q 35.15625 6.890625 40.078125 11.328125 
Q 45.015625 15.765625 45.015625 23.390625 
Q 45.015625 31 40.078125 35.4375 
Q 35.15625 39.890625 26.703125 39.890625 
Q 22.75 39.890625 18.8125 39.015625 
Q 14.890625 38.140625 10.796875 36.28125 
z
" id="DejaVuSans-53"/>
      </defs>
      <g transform="translate(202.766802 518.598438)scale(0.1 -0.1)">
       <use xlink:href="#DejaVuSans-53"/>
      </g>
     </g>
    </g>
    <g id="xtick_3">
     <g id="line2d_3">
      <g>
       <use style="stroke:#000000;stroke-width:0.8;" x="296.532468" xlink:href="#mff5e6e7e48" y="504"/>
      </g>
     </g>
     <g id="text_3">
      <!-- 10 -->
      <defs>
       <path d="M 12.40625 8.296875 
L 28.515625 8.296875 
L 28.515625 63.921875 
L 10.984375 60.40625 
L 10.984375 69.390625 
L 28.421875 72.90625 
L 38.28125 72.90625 
L 38.28125 8.296875 
L 54.390625 8.296875 
L 54.390625 0 
L 12.40625 0 
z
" id="DejaVuSans-49"/>
      </defs>
      <g transform="translate(290.169968 518.598438)scale(0.1 -0.1)">
       <use xlink:href="#DejaVuSans-49"/>
       <use x="63.623047" xlink:href="#DejaVuSans-48"/>
      </g>
     </g>
    </g>
    <g id="xtick_4">
     <g id="line2d_4">
      <g>
       <use style="stroke:#000000;stroke-width:0.8;" x="387.116883" xlink:href="#mff5e6e7e48" y="504"/>
      </g>
     </g>
     <g id="text_4">
      <!-- 15 -->
      <g transform="translate(380.754383 518.598438)scale(0.1 -0.1)">
       <use xlink:href="#DejaVuSans-49"/>
       <use x="63.623047" xlink:href="#DejaVuSans-53"/>
      </g>
     </g>
    </g>
    <g id="xtick_5">
     <g id="line2d_5">
      <g>
       <use style="stroke:#000000;stroke-width:0.8;" x="477.701299" xlink:href="#mff5e6e7e48" y="504"/>
      </g>
     </g>
     <g id="text_5">
      <!-- 20 -->
      <defs>
       <path d="M 19.1875 8.296875 
L 53.609375 8.296875 
L 53.609375 0 
L 7.328125 0 
L 7.328125 8.296875 
Q 12.9375 14.109375 22.625 23.890625 
Q 32.328125 33.6875 34.8125 36.53125 
Q 39.546875 41.84375 41.421875 45.53125 
Q 43.3125 49.21875 43.3125 52.78125 
Q 43.3125 58.59375 39.234375 62.25 
Q 35.15625 65.921875 28.609375 65.921875 
Q 23.96875 65.921875 18.8125 64.3125 
Q 13.671875 62.703125 7.8125 59.421875 
L 7.8125 69.390625 
Q 13.765625 71.78125 18.9375 73 
Q 24.125 74.21875 28.421875 74.21875 
Q 39.75 74.21875 46.484375 68.546875 
Q 53.21875 62.890625 53.21875 53.421875 
Q 53.21875 48.921875 51.53125 44.890625 
Q 49.859375 40.875 45.40625 35.40625 
Q 44.1875 33.984375 37.640625 27.21875 
Q 31.109375 20.453125 19.1875 8.296875 
z
" id="DejaVuSans-50"/>
      </defs>
      <g transform="translate(471.338799 518.598438)scale(0.1 -0.1)">
       <use xlink:href="#DejaVuSans-50"/>
       <use x="63.623047" xlink:href="#DejaVuSans-48"/>
      </g>
     </g>
    </g>
    <g id="xtick_6">
     <g id="line2d_6">
      <g>
       <use style="stroke:#000000;stroke-width:0.8;" x="568.285714" xlink:href="#mff5e6e7e48" y="504"/>
      </g>
     </g>
     <g id="text_6">
      <!-- 25 -->
      <g transform="translate(561.923214 518.598438)scale(0.1 -0.1)">
       <use xlink:href="#DejaVuSans-50"/>
       <use x="63.623047" xlink:href="#DejaVuSans-53"/>
      </g>
     </g>
    </g>
   </g>
   <g id="matplotlib.axis_2">
    <g id="ytick_1">
     <g id="line2d_7">
      <defs>
       <path d="M 0 0 
L -3.5 0 
" id="m313eead84e" style="stroke:#000000;stroke-width:0.8;"/>
      </defs>
      <g>
       <use style="stroke:#000000;stroke-width:0.8;" x="90" xlink:href="#m313eead84e" y="448.621091"/>
      </g>
     </g>
     <g id="text_7">
      <!-- −2 -->
      <defs>
       <path d="M 10.59375 35.5 
L 73.1875 35.5 
L 73.1875 27.203125 
L 10.59375 27.203125 
z
" id="DejaVuSans-8722"/>
      </defs>
      <g transform="translate(68.257812 452.42031)scale(0.1 -0.1)">
       <use xlink:href="#DejaVuSans-8722"/>
       <use x="83.789062" xlink:href="#DejaVuSans-50"/>
      </g>
     </g>
    </g>
    <g id="ytick_2">
     <g id="line2d_8">
      <g>
       <use style="stroke:#000000;stroke-width:0.8;" x="90" xlink:href="#m313eead84e" y="387.88145"/>
      </g>
     </g>
     <g id="text_8">
      <!-- 0 -->
      <g transform="translate(76.6375 391.680669)scale(0.1 -0.1)">
       <use xlink:href="#DejaVuSans-48"/>
      </g>
     </g>
    </g>
    <g id="ytick_3">
     <g id="line2d_9">
      <g>
       <use style="stroke:#000000;stroke-width:0.8;" x="90" xlink:href="#m313eead84e" y="327.14181"/>
      </g>
     </g>
     <g id="text_9">
      <!-- 2 -->
      <g transform="translate(76.6375 330.941028)scale(0.1 -0.1)">
       <use xlink:href="#DejaVuSans-50"/>
      </g>
     </g>
    </g>
    <g id="ytick_4">
     <g id="line2d_10">
      <g>
       <use style="stroke:#000000;stroke-width:0.8;" x="90" xlink:href="#m313eead84e" y="266.402169"/>
      </g>
     </g>
     <g id="text_10">
      <!-- 4 -->
      <defs>
       <path d="M 37.796875 64.3125 
L 12.890625 25.390625 
L 37.796875 25.390625 
z
M 35.203125 72.90625 
L 47.609375 72.90625 
L 47.609375 25.390625 
L 58.015625 25.390625 
L 58.015625 17.1875 
L 47.609375 17.1875 
L 47.609375 0 
L 37.796875 0 
L 37.796875 17.1875 
L 4.890625 17.1875 
L 4.890625 26.703125 
z
" id="DejaVuSans-52"/>
      </defs>
      <g transform="translate(76.6375 270.201387)scale(0.1 -0.1)">
       <use xlink:href="#DejaVuSans-52"/>
      </g>
     </g>
    </g>
    <g id="ytick_5">
     <g id="line2d_11">
      <g>
       <use style="stroke:#000000;stroke-width:0.8;" x="90" xlink:href="#m313eead84e" y="205.662528"/>
      </g>
     </g>
     <g id="text_11">
      <!-- 6 -->
      <defs>
       <path d="M 33.015625 40.375 
Q 26.375 40.375 22.484375 35.828125 
Q 18.609375 31.296875 18.609375 23.390625 
Q 18.609375 15.53125 22.484375 10.953125 
Q 26.375 6.390625 33.015625 6.390625 
Q 39.65625 6.390625 43.53125 10.953125 
Q 47.40625 15.53125 47.40625 23.390625 
Q 47.40625 31.296875 43.53125 35.828125 
Q 39.65625 40.375 33.015625 40.375 
z
M 52.59375 71.296875 
L 52.59375 62.3125 
Q 48.875 64.0625 45.09375 64.984375 
Q 41.3125 65.921875 37.59375 65.921875 
Q 27.828125 65.921875 22.671875 59.328125 
Q 17.53125 52.734375 16.796875 39.40625 
Q 19.671875 43.65625 24.015625 45.921875 
Q 28.375 48.1875 33.59375 48.1875 
Q 44.578125 48.1875 50.953125 41.515625 
Q 57.328125 34.859375 57.328125 23.390625 
Q 57.328125 12.15625 50.6875 5.359375 
Q 44.046875 -1.421875 33.015625 -1.421875 
Q 20.359375 -1.421875 13.671875 8.265625 
Q 6.984375 17.96875 6.984375 36.375 
Q 6.984375 53.65625 15.1875 63.9375 
Q 23.390625 74.21875 37.203125 74.21875 
Q 40.921875 74.21875 44.703125 73.484375 
Q 48.484375 72.75 52.59375 71.296875 
z
" id="DejaVuSans-54"/>
      </defs>
      <g transform="translate(76.6375 209.461747)scale(0.1 -0.1)">
       <use xlink:href="#DejaVuSans-54"/>
      </g>
     </g>
    </g>
    <g id="ytick_6">
     <g id="line2d_12">
      <g>
       <use style="stroke:#000000;stroke-width:0.8;" x="90" xlink:href="#m313eead84e" y="144.922887"/>
      </g>
     </g>
     <g id="text_12">
      <!-- 8 -->
      <defs>
       <path d="M 31.78125 34.625 
Q 24.75 34.625 20.71875 30.859375 
Q 16.703125 27.09375 16.703125 20.515625 
Q 16.703125 13.921875 20.71875 10.15625 
Q 24.75 6.390625 31.78125 6.390625 
Q 38.8125 6.390625 42.859375 10.171875 
Q 46.921875 13.96875 46.921875 20.515625 
Q 46.921875 27.09375 42.890625 30.859375 
Q 38.875 34.625 31.78125 34.625 
z
M 21.921875 38.8125 
Q 15.578125 40.375 12.03125 44.71875 
Q 8.5 49.078125 8.5 55.328125 
Q 8.5 64.0625 14.71875 69.140625 
Q 20.953125 74.21875 31.78125 74.21875 
Q 42.671875 74.21875 48.875 69.140625 
Q 55.078125 64.0625 55.078125 55.328125 
Q 55.078125 49.078125 51.53125 44.71875 
Q 48 40.375 41.703125 38.8125 
Q 48.828125 37.15625 52.796875 32.3125 
Q 56.78125 27.484375 56.78125 20.515625 
Q 56.78125 9.90625 50.3125 4.234375 
Q 43.84375 -1.421875 31.78125 -1.421875 
Q 19.734375 -1.421875 13.25 4.234375 
Q 6.78125 9.90625 6.78125 20.515625 
Q 6.78125 27.484375 10.78125 32.3125 
Q 14.796875 37.15625 21.921875 38.8125 
z
M 18.3125 54.390625 
Q 18.3125 48.734375 21.84375 45.5625 
Q 25.390625 42.390625 31.78125 42.390625 
Q 38.140625 42.390625 41.71875 45.5625 
Q 45.3125 48.734375 45.3125 54.390625 
Q 45.3125 60.0625 41.71875 63.234375 
Q 38.140625 66.40625 31.78125 66.40625 
Q 25.390625 66.40625 21.84375 63.234375 
Q 18.3125 60.0625 18.3125 54.390625 
z
" id="DejaVuSans-56"/>
      </defs>
      <g transform="translate(76.6375 148.722106)scale(0.1 -0.1)">
       <use xlink:href="#DejaVuSans-56"/>
      </g>
     </g>
    </g>
    <g id="ytick_7">
     <g id="line2d_13">
      <g>
       <use style="stroke:#000000;stroke-width:0.8;" x="90" xlink:href="#m313eead84e" y="84.183246"/>
      </g>
     </g>
     <g id="text_13">
      <!-- 10 -->
      <g transform="translate(70.275 87.982465)scale(0.1 -0.1)">
       <use xlink:href="#DejaVuSans-49"/>
       <use x="63.623047" xlink:href="#DejaVuSans-48"/>
      </g>
     </g>
    </g>
   </g>
   <g id="line2d_14">
    <path clip-path="url(#pa6961db4c0)" d="M 115.363636 349.112034 
L 133.480519 372.903633 
L 151.597403 355.684553 
L 169.714286 355.741782 
L 187.831169 390.519821 
L 205.948052 396.437208 
L 224.064935 342.053192 
L 242.181818 392.219723 
L 260.298701 408.58409 
L 278.415584 400.096903 
L 296.532468 429.270791 
L 314.649351 423.576858 
L 332.766234 401.468112 
L 350.883117 390.141604 
L 369 389.714485 
L 387.116883 383.546093 
L 405.233766 410.988857 
L 423.350649 345.647032 
L 441.467532 416.022969 
L 459.584416 395.620651 
L 477.701299 415.720003 
L 495.818182 391.347847 
L 513.935065 387.88145 
L 532.051948 384.005149 
L 550.168831 396.127718 
L 568.285714 387.88145 
L 586.402597 394.350508 
L 604.519481 387.88145 
L 622.636364 387.88145 
" style="fill:none;stroke:#1f77b4;stroke-linecap:square;stroke-width:1.5;"/>
   </g>
   <g id="line2d_15">
    <path clip-path="url(#pa6961db4c0)" d="M 115.363636 371.156154 
L 133.480519 373.996811 
L 151.597403 409.149272 
L 169.714286 363.671503 
L 187.831169 374.390282 
L 205.948052 433.181697 
L 224.064935 378.269397 
L 242.181818 392.219723 
L 260.298701 405.450581 
L 278.415584 402.663746 
L 296.532468 396.42336 
L 314.649351 384.612158 
L 332.766234 376.400777 
L 350.883117 373.751749 
L 369 425.777546 
L 387.116883 347.823737 
L 405.233766 379.321696 
L 423.350649 385.509198 
L 441.467532 378.886568 
L 459.584416 395.620651 
L 477.701299 392.036118 
L 495.818182 391.347847 
L 513.935065 387.88145 
L 532.051948 408.118894 
L 550.168831 396.127718 
L 568.285714 387.88145 
L 586.402597 394.350508 
L 604.519481 387.88145 
L 622.636364 387.88145 
" style="fill:none;stroke:#ff7f0e;stroke-linecap:square;stroke-width:1.5;"/>
   </g>
   <g id="line2d_16">
    <path clip-path="url(#pa6961db4c0)" d="M 115.363636 372.979528 
L 133.480519 390.088869 
L 151.597403 383.571158 
L 169.714286 367.025948 
L 187.831169 395.731971 
L 205.948052 402.460929 
L 224.064935 400.97016 
L 242.181818 392.219723 
L 260.298701 396.041341 
L 278.415584 390.634243 
L 296.532468 390.261634 
L 314.649351 413.965776 
L 332.766234 402.163804 
L 350.883117 392.562931 
L 369 396.407366 
L 387.116883 413.836591 
L 405.233766 393.13854 
L 423.350649 404.839097 
L 441.467532 415.584644 
L 459.584416 395.620651 
L 477.701299 414.073509 
L 495.818182 391.347847 
L 513.935065 387.88145 
L 532.051948 408.118894 
L 550.168831 396.127718 
L 568.285714 387.88145 
L 586.402597 394.350508 
L 604.519481 387.88145 
L 622.636364 387.88145 
" style="fill:none;stroke:#2ca02c;stroke-linecap:square;stroke-width:1.5;"/>
   </g>
   <g id="line2d_17">
    <path clip-path="url(#pa6961db4c0)" d="M 115.363636 370.860862 
L 133.480519 337.347089 
L 151.597403 448.719993 
L 169.714286 368.087194 
L 187.831169 338.468156 
L 205.948052 401.093917 
L 224.064935 428.047725 
L 242.181818 392.219723 
L 260.298701 408.2136 
L 278.415584 436.011643 
L 296.532468 405.820856 
L 314.649351 390.605681 
L 332.766234 341.654803 
L 350.883117 331.883746 
L 369 406.664335 
L 387.116883 385.113507 
L 405.233766 419.750691 
L 423.350649 427.89588 
L 441.467532 393.429121 
L 459.584416 395.620651 
L 477.701299 402.15294 
L 495.818182 391.347847 
L 513.935065 387.88145 
L 532.051948 408.118894 
L 550.168831 396.127718 
L 568.285714 387.88145 
L 586.402597 394.350508 
L 604.519481 387.88145 
L 622.636364 387.88145 
" style="fill:none;stroke:#d62728;stroke-linecap:square;stroke-width:1.5;"/>
   </g>
   <g id="line2d_18">
    <path clip-path="url(#pa6961db4c0)" d="M 115.363636 406.987014 
L 133.480519 409.341805 
L 151.597403 399.827939 
L 169.714286 396.340754 
L 187.831169 404.436591 
L 205.948052 379.560906 
L 224.064935 400.692296 
L 242.181818 392.219723 
L 260.298701 399.368706 
L 278.415584 383.576427 
L 296.532468 346.772719 
L 314.649351 376.685744 
L 332.766234 395.44543 
L 350.883117 398.225607 
L 369 384.174214 
L 387.116883 373.906665 
L 405.233766 391.192479 
L 423.350649 399.388818 
L 441.467532 398.133628 
L 459.584416 395.620651 
L 477.701299 407.747743 
L 495.818182 391.347847 
L 513.935065 387.88145 
L 532.051948 408.118894 
L 550.168831 396.127718 
L 568.285714 387.88145 
L 586.402597 394.350508 
L 604.519481 387.88145 
L 622.636364 387.88145 
" style="fill:none;stroke:#9467bd;stroke-linecap:square;stroke-width:1.5;"/>
   </g>
   <g id="line2d_19">
    <path clip-path="url(#pa6961db4c0)" d="M 115.363636 318.746282 
L 133.480519 341.580066 
L 151.597403 368.351329 
L 169.714286 334.160662 
L 187.831169 351.114328 
L 205.948052 426.363025 
L 224.064935 423.834366 
L 242.181818 392.219723 
L 260.298701 417.861915 
L 278.415584 422.260647 
L 296.532468 474.162858 
L 314.649351 432.893766 
L 332.766234 364.344543 
L 350.883117 351.231333 
L 369 424.644579 
L 387.116883 457.335101 
L 405.233766 423.226499 
L 423.350649 424.308168 
L 441.467532 403.411 
L 459.584416 395.620651 
L 477.701299 382.435058 
L 495.818182 391.347847 
L 513.935065 387.88145 
L 532.051948 408.118894 
L 550.168831 396.127718 
L 568.285714 387.88145 
L 586.402597 394.350508 
L 604.519481 387.88145 
L 622.636364 387.88145 
" style="fill:none;stroke:#8c564b;stroke-linecap:square;stroke-width:1.5;"/>
   </g>
   <g id="line2d_20">
    <path clip-path="url(#pa6961db4c0)" d="M 115.363636 333.446359 
L 133.480519 321.8314 
L 151.597403 408.711094 
L 169.714286 351.61494 
L 187.831169 317.196271 
L 205.948052 401.848503 
L 224.064935 308.670188 
L 242.181818 392.219723 
L 260.298701 431.061878 
L 278.415584 448.031653 
L 296.532468 480.090092 
L 314.649351 399.702931 
L 332.766234 319.498965 
L 350.883117 326.357767 
L 369 409.937161 
L 387.116883 418.834484 
L 405.233766 324.995406 
L 423.350649 315.280895 
L 441.467532 320.250178 
L 459.584416 395.620651 
L 477.701299 317.516291 
L 495.818182 391.347847 
L 513.935065 387.88145 
L 532.051948 326.083105 
L 550.168831 396.127718 
L 568.285714 387.88145 
L 586.402597 394.350508 
L 604.519481 387.88145 
L 622.636364 387.88145 
" style="fill:none;stroke:#e377c2;stroke-linecap:square;stroke-width:1.5;"/>
   </g>
   <g id="line2d_21">
    <path clip-path="url(#pa6961db4c0)" d="M 115.363636 422.594766 
L 133.480519 443.274329 
L 151.597403 324.29839 
L 169.714286 427.973097 
L 187.831169 444.109796 
L 205.948052 356.035417 
L 224.064935 411.275581 
L 242.181818 177.714864 
L 260.298701 325.88632 
L 278.415584 325.901203 
L 296.532468 363.430346 
L 314.649351 387.820936 
L 332.766234 441.725096 
L 350.883117 444.718934 
L 369 340.545617 
L 387.116883 382.242984 
L 405.233766 416.133575 
L 423.350649 411.044604 
L 441.467532 416.715889 
L 459.584416 375.8586 
L 477.701299 411.372705 
L 495.818182 88.887273 
L 513.935065 387.88145 
L 532.051948 394.385392 
L 550.168831 396.127718 
L 568.285714 387.88145 
L 586.402597 394.350508 
L 604.519481 387.88145 
L 622.636364 387.88145 
" style="fill:none;stroke:#7f7f7f;stroke-linecap:square;stroke-width:1.5;"/>
   </g>
   <g id="line2d_22">
    <path clip-path="url(#pa6961db4c0)" d="M 115.363636 336.090206 
L 133.480519 406.978792 
L 151.597403 341.555165 
L 169.714286 337.043985 
L 187.831169 411.113914 
L 205.948052 445.943751 
L 224.064935 437.429496 
L 242.181818 392.219723 
L 260.298701 433.20612 
L 278.415584 384.486411 
L 296.532468 406.18519 
L 314.649351 418.68823 
L 332.766234 411.611357 
L 350.883117 415.051043 
L 369 435.370726 
L 387.116883 464.292494 
L 405.233766 432.369357 
L 423.350649 435.88454 
L 441.467532 406.990141 
L 459.584416 395.620651 
L 477.701299 430.466313 
L 495.818182 391.347847 
L 513.935065 387.88145 
L 532.051948 408.118894 
L 550.168831 396.127718 
L 568.285714 387.88145 
L 586.402597 394.350508 
L 604.519481 387.88145 
L 622.636364 387.88145 
" style="fill:none;stroke:#bcbd22;stroke-linecap:square;stroke-width:1.5;"/>
   </g>
   <g id="line2d_23">
    <path clip-path="url(#pa6961db4c0)" d="M 115.363636 400.555863 
L 133.480519 420.706289 
L 151.597403 342.729288 
L 169.714286 405.793913 
L 187.831169 418.272503 
L 205.948052 349.141184 
L 224.064935 424.34015 
L 242.181818 392.219723 
L 260.298701 359.526089 
L 278.415584 361.93309 
L 296.532468 381.305615 
L 314.649351 375.661681 
L 332.766234 407.776781 
L 350.883117 424.608331 
L 369 350.280645 
L 387.116883 393.581762 
L 405.233766 432.369357 
L 423.350649 430.311694 
L 441.467532 370.681473 
L 459.584416 395.620651 
L 477.701299 405.928576 
L 495.818182 391.347847 
L 513.935065 387.88145 
L 532.051948 408.118894 
L 550.168831 283.769738 
L 568.285714 387.88145 
L 586.402597 394.350508 
L 604.519481 387.88145 
L 622.636364 387.88145 
" style="fill:none;stroke:#17becf;stroke-linecap:square;stroke-width:1.5;"/>
   </g>
   <g id="line2d_24">
    <path clip-path="url(#pa6961db4c0)" d="M 115.363636 330.492621 
L 133.480519 390.499511 
L 151.597403 344.591621 
L 169.714286 327.870633 
L 187.831169 396.773707 
L 205.948052 443.231774 
L 224.064935 437.429496 
L 242.181818 392.219723 
L 260.298701 416.771619 
L 278.415584 390.992728 
L 296.532468 436.602087 
L 314.649351 441.290069 
L 332.766234 402.134876 
L 350.883117 395.922951 
L 369 433.167822 
L 387.116883 432.796575 
L 405.233766 432.369357 
L 423.350649 435.88454 
L 441.467532 386.066362 
L 459.584416 395.620651 
L 477.701299 443.576523 
L 495.818182 391.347847 
L 513.935065 387.88145 
L 532.051948 408.118894 
L 550.168831 396.127718 
L 568.285714 387.88145 
L 586.402597 394.350508 
L 604.519481 387.88145 
L 622.636364 387.88145 
" style="fill:none;stroke:#1f77b4;stroke-linecap:square;stroke-width:1.5;"/>
   </g>
   <g id="line2d_25">
    <path clip-path="url(#pa6961db4c0)" d="M 115.363636 406.531737 
L 133.480519 405.614118 
L 151.597403 390.002635 
L 169.714286 403.082976 
L 187.831169 398.289872 
L 205.948052 390.296286 
L 224.064935 366.486053 
L 242.181818 392.219723 
L 260.298701 383.856139 
L 278.415584 368.983111 
L 296.532468 366.380628 
L 314.649351 376.252871 
L 332.766234 392.748976 
L 350.883117 403.288447 
L 369 397.039266 
L 387.116883 379.353908 
L 405.233766 352.852423 
L 423.350649 355.339257 
L 441.467532 342.130378 
L 459.584416 395.620651 
L 477.701299 352.602014 
L 495.818182 391.347847 
L 513.935065 387.88145 
L 532.051948 340.857214 
L 550.168831 396.127718 
L 568.285714 387.88145 
L 586.402597 394.350508 
L 604.519481 387.88145 
L 622.636364 387.88145 
" style="fill:none;stroke:#ff7f0e;stroke-linecap:square;stroke-width:1.5;"/>
   </g>
   <g id="line2d_26">
    <path clip-path="url(#pa6961db4c0)" d="M 115.363636 380.2592 
L 133.480519 360.063279 
L 151.597403 414.315115 
L 169.714286 381.766187 
L 187.831169 361.620292 
L 205.948052 395.756403 
L 224.064935 372.68116 
L 242.181818 392.219723 
L 260.298701 399.200331 
L 278.415584 413.62318 
L 296.532468 399.75299 
L 314.649351 400.221914 
L 332.766234 363.264383 
L 350.883117 359.154366 
L 369 387.71554 
L 387.116883 389.722315 
L 405.233766 379.658332 
L 423.350649 374.94721 
L 441.467532 379.20882 
L 459.584416 395.620651 
L 477.701299 411.642245 
L 495.818182 391.347847 
L 513.935065 387.88145 
L 532.051948 361.59319 
L 550.168831 396.127718 
L 568.285714 387.88145 
L 586.402597 394.350508 
L 604.519481 387.88145 
L 622.636364 387.88145 
" style="fill:none;stroke:#2ca02c;stroke-linecap:square;stroke-width:1.5;"/>
   </g>
   <g id="line2d_27">
    <path clip-path="url(#pa6961db4c0)" d="M 115.363636 339.875406 
L 133.480519 312.857417 
L 151.597403 455.313301 
L 169.714286 346.608108 
L 187.831169 314.124004 
L 205.948052 385.845856 
L 224.064935 307.61849 
L 242.181818 392.219723 
L 260.298701 434.688967 
L 278.415584 474.167186 
L 296.532468 440.731014 
L 314.649351 382.432765 
L 332.766234 326.455642 
L 350.883117 314.787174 
L 369 407.132194 
L 387.116883 425.043054 
L 405.233766 289.516165 
L 423.350649 295.203367 
L 441.467532 406.876046 
L 459.584416 395.620651 
L 477.701299 324.286044 
L 495.818182 391.347847 
L 513.935065 387.88145 
L 532.051948 354.413795 
L 550.168831 396.127718 
L 568.285714 387.88145 
L 586.402597 394.350508 
L 604.519481 387.88145 
L 622.636364 387.88145 
" style="fill:none;stroke:#d62728;stroke-linecap:square;stroke-width:1.5;"/>
   </g>
   <g id="line2d_28">
    <path clip-path="url(#pa6961db4c0)" d="M 115.363636 391.960162 
L 133.480519 387.359372 
L 151.597403 378.403844 
L 169.714286 397.021691 
L 187.831169 386.339974 
L 205.948052 367.643452 
L 224.064935 378.438182 
L 242.181818 392.219723 
L 260.298701 380.594114 
L 278.415584 387.389653 
L 296.532468 395.362328 
L 314.649351 390.320026 
L 332.766234 387.50812 
L 350.883117 387.72524 
L 369 368.122654 
L 387.116883 386.373492 
L 405.233766 373.112093 
L 423.350649 373.253976 
L 441.467532 387.844702 
L 459.584416 395.620651 
L 477.701299 368.689118 
L 495.818182 391.347847 
L 513.935065 387.88145 
L 532.051948 396.224955 
L 550.168831 396.127718 
L 568.285714 387.88145 
L 586.402597 394.350508 
L 604.519481 387.88145 
L 622.636364 387.88145 
" style="fill:none;stroke:#9467bd;stroke-linecap:square;stroke-width:1.5;"/>
   </g>
   <g id="line2d_29">
    <path clip-path="url(#pa6961db4c0)" d="M 115.363636 408.930762 
L 133.480519 402.618687 
L 151.597403 387.916693 
L 169.714286 404.276221 
L 187.831169 400.250012 
L 205.948052 384.43146 
L 224.064935 384.187798 
L 242.181818 392.219723 
L 260.298701 376.506452 
L 278.415584 373.026089 
L 296.532468 362.351625 
L 314.649351 372.017676 
L 332.766234 399.048041 
L 350.883117 397.189315 
L 369 383.367376 
L 387.116883 373.710596 
L 405.233766 388.138955 
L 423.350649 385.215148 
L 441.467532 393.375728 
L 459.584416 395.620651 
L 477.701299 395.565802 
L 495.818182 391.347847 
L 513.935065 387.88145 
L 532.051948 386.73972 
L 550.168831 396.127718 
L 568.285714 387.88145 
L 586.402597 394.350508 
L 604.519481 387.88145 
L 622.636364 387.88145 
" style="fill:none;stroke:#8c564b;stroke-linecap:square;stroke-width:1.5;"/>
   </g>
   <g id="line2d_30">
    <path clip-path="url(#pa6961db4c0)" d="M 115.363636 359.105609 
L 133.480519 403.102782 
L 151.597403 362.270312 
L 169.714286 354.216961 
L 187.831169 407.892661 
L 205.948052 394.780389 
L 224.064935 390.892916 
L 242.181818 392.219723 
L 260.298701 421.483262 
L 278.415584 388.297482 
L 296.532468 398.10564 
L 314.649351 413.942777 
L 332.766234 412.008431 
L 350.883117 409.082345 
L 369 400.445223 
L 387.116883 399.065699 
L 405.233766 388.554529 
L 423.350649 388.332974 
L 441.467532 405.700344 
L 459.584416 395.620651 
L 477.701299 415.528647 
L 495.818182 391.347847 
L 513.935065 387.88145 
L 532.051948 408.118894 
L 550.168831 396.127718 
L 568.285714 387.88145 
L 586.402597 394.350508 
L 604.519481 387.88145 
L 622.636364 387.88145 
" style="fill:none;stroke:#e377c2;stroke-linecap:square;stroke-width:1.5;"/>
   </g>
   <g id="line2d_31">
    <path clip-path="url(#pa6961db4c0)" d="M 115.363636 375.514339 
L 133.480519 401.883676 
L 151.597403 387.740165 
L 169.714286 361.762894 
L 187.831169 407.100138 
L 205.948052 367.093285 
L 224.064935 399.366175 
L 242.181818 392.219723 
L 260.298701 416.230862 
L 278.415584 399.438384 
L 296.532468 367.269844 
L 314.649351 411.330445 
L 332.766234 415.594262 
L 350.883117 409.691521 
L 369 384.035654 
L 387.116883 367.700385 
L 405.233766 388.487146 
L 423.350649 401.1582 
L 441.467532 415.665201 
L 459.584416 395.620651 
L 477.701299 389.955767 
L 495.818182 391.347847 
L 513.935065 387.88145 
L 532.051948 395.745885 
L 550.168831 396.127718 
L 568.285714 387.88145 
L 586.402597 394.350508 
L 604.519481 387.88145 
L 622.636364 387.88145 
" style="fill:none;stroke:#7f7f7f;stroke-linecap:square;stroke-width:1.5;"/>
   </g>
   <g id="line2d_32">
    <path clip-path="url(#pa6961db4c0)" d="M 115.363636 389.854325 
L 133.480519 373.279764 
L 151.597403 412.8132 
L 169.714286 384.524521 
L 187.831169 378.00848 
L 205.948052 379.882245 
L 224.064935 399.782671 
L 242.181818 392.219723 
L 260.298701 391.591867 
L 278.415584 401.330269 
L 296.532468 382.425998 
L 314.649351 413.153028 
L 332.766234 382.382998 
L 350.883117 374.775035 
L 369 380.672945 
L 387.116883 364.662649 
L 405.233766 407.051499 
L 423.350649 403.827939 
L 441.467532 403.22825 
L 459.584416 395.620651 
L 477.701299 399.581469 
L 495.818182 391.347847 
L 513.935065 387.88145 
L 532.051948 392.54374 
L 550.168831 396.127718 
L 568.285714 387.88145 
L 586.402597 394.350508 
L 604.519481 387.88145 
L 622.636364 387.88145 
" style="fill:none;stroke:#bcbd22;stroke-linecap:square;stroke-width:1.5;"/>
   </g>
   <g id="line2d_33">
    <path clip-path="url(#pa6961db4c0)" d="M 115.363636 377.512093 
L 133.480519 390.816673 
L 151.597403 366.798085 
L 169.714286 378.301269 
L 187.831169 397.030731 
L 205.948052 387.491798 
L 224.064935 385.380221 
L 242.181818 392.219723 
L 260.298701 370.095978 
L 278.415584 381.837301 
L 296.532468 397.449697 
L 314.649351 406.834717 
L 332.766234 403.485281 
L 350.883117 397.263606 
L 369 392.124422 
L 387.116883 407.42049 
L 405.233766 399.86597 
L 423.350649 391.564127 
L 441.467532 422.487316 
L 459.584416 395.620651 
L 477.701299 396.334028 
L 495.818182 391.347847 
L 513.935065 387.88145 
L 532.051948 374.28022 
L 550.168831 396.127718 
L 568.285714 387.88145 
L 586.402597 273.953859 
L 604.519481 387.88145 
L 622.636364 387.88145 
" style="fill:none;stroke:#17becf;stroke-linecap:square;stroke-width:1.5;"/>
   </g>
   <g id="line2d_34">
    <path clip-path="url(#pa6961db4c0)" d="M 115.363636 345.10552 
L 133.480519 439.027822 
L 151.597403 295.274395 
L 169.714286 340.131729 
L 187.831169 447.558835 
L 205.948052 432.821622 
L 224.064935 437.429496 
L 242.181818 392.219723 
L 260.298701 414.533353 
L 278.415584 341.037245 
L 296.532468 403.123704 
L 314.649351 435.54687 
L 332.766234 459.217913 
L 350.883117 460.849029 
L 369 431.534137 
L 387.116883 419.603539 
L 405.233766 432.369357 
L 423.350649 435.88454 
L 441.467532 416.494983 
L 459.584416 395.620651 
L 477.701299 403.355697 
L 495.818182 391.347847 
L 513.935065 387.88145 
L 532.051948 408.118894 
L 550.168831 396.127718 
L 568.285714 387.88145 
L 586.402597 394.350508 
L 604.519481 387.88145 
L 622.636364 387.88145 
" style="fill:none;stroke:#1f77b4;stroke-linecap:square;stroke-width:1.5;"/>
   </g>
   <g id="line2d_35">
    <path clip-path="url(#pa6961db4c0)" d="M 115.363636 430.538987 
L 133.480519 401.541425 
L 151.597403 388.744019 
L 169.714286 437.681561 
L 187.831169 388.095645 
L 205.948052 370.308804 
L 224.064935 354.894509 
L 242.181818 392.219723 
L 260.298701 352.682886 
L 278.415584 368.571705 
L 296.532468 370.474597 
L 314.649351 305.415695 
L 332.766234 370.77922 
L 350.883117 385.999449 
L 369 363.257693 
L 387.116883 365.966818 
L 405.233766 339.315872 
L 423.350649 356.303609 
L 441.467532 356.217746 
L 459.584416 395.620651 
L 477.701299 371.372475 
L 495.818182 391.347847 
L 513.935065 387.88145 
L 532.051948 347.358784 
L 550.168831 396.127718 
L 568.285714 387.88145 
L 586.402597 394.350508 
L 604.519481 387.88145 
L 622.636364 387.88145 
" style="fill:none;stroke:#ff7f0e;stroke-linecap:square;stroke-width:1.5;"/>
   </g>
   <g id="line2d_36">
    <path clip-path="url(#pa6961db4c0)" d="M 115.363636 376.771332 
L 133.480519 391.448186 
L 151.597403 396.448709 
L 169.714286 367.702685 
L 187.831169 399.195368 
L 205.948052 391.978744 
L 224.064935 398.928273 
L 242.181818 392.219723 
L 260.298701 412.328987 
L 278.415584 395.584205 
L 296.532468 365.823398 
L 314.649351 415.329994 
L 332.766234 406.300455 
L 350.883117 400.674748 
L 369 400.091774 
L 387.116883 390.996365 
L 405.233766 415.107724 
L 423.350649 403.100411 
L 441.467532 413.143527 
L 459.584416 395.620651 
L 477.701299 409.33743 
L 495.818182 391.347847 
L 513.935065 387.88145 
L 532.051948 408.118894 
L 550.168831 396.127718 
L 568.285714 387.88145 
L 586.402597 394.350508 
L 604.519481 387.88145 
L 622.636364 387.88145 
" style="fill:none;stroke:#2ca02c;stroke-linecap:square;stroke-width:1.5;"/>
   </g>
   <g id="line2d_37">
    <path clip-path="url(#pa6961db4c0)" d="M 115.363636 369.91895 
L 133.480519 380.238259 
L 151.597403 401.122495 
L 169.714286 365.626346 
L 187.831169 380.30078 
L 205.948052 440.165125 
L 224.064935 414.22075 
L 242.181818 392.219723 
L 260.298701 416.422435 
L 278.415584 396.598986 
L 296.532468 390.182198 
L 314.649351 390.953132 
L 332.766234 374.915296 
L 350.883117 374.79768 
L 369 429.536059 
L 387.116883 407.695713 
L 405.233766 416.761248 
L 423.350649 421.062702 
L 441.467532 407.255797 
L 459.584416 395.620651 
L 477.701299 430.893981 
L 495.818182 391.347847 
L 513.935065 387.88145 
L 532.051948 408.118894 
L 550.168831 196.90555 
L 568.285714 387.88145 
L 586.402597 394.350508 
L 604.519481 387.88145 
L 622.636364 387.88145 
" style="fill:none;stroke:#d62728;stroke-linecap:square;stroke-width:1.5;"/>
   </g>
   <g id="line2d_38">
    <path clip-path="url(#pa6961db4c0)" d="M 115.363636 407.98975 
L 133.480519 419.81969 
L 151.597403 362.519302 
L 169.714286 401.495573 
L 187.831169 424.055332 
L 205.948052 336.95355 
L 224.064935 428.299165 
L 242.181818 392.219723 
L 260.298701 348.603099 
L 278.415584 368.857107 
L 296.532468 362.226864 
L 314.649351 407.558606 
L 332.766234 427.799362 
L 350.883117 422.870277 
L 369 336.479111 
L 387.116883 351.422278 
L 405.233766 420.088883 
L 423.350649 420.335426 
L 441.467532 406.156097 
L 459.584416 395.620651 
L 477.701299 419.661088 
L 495.818182 391.347847 
L 513.935065 387.88145 
L 532.051948 408.118894 
L 550.168831 396.127718 
L 568.285714 387.88145 
L 586.402597 394.350508 
L 604.519481 387.88145 
L 622.636364 387.88145 
" style="fill:none;stroke:#9467bd;stroke-linecap:square;stroke-width:1.5;"/>
   </g>
   <g id="line2d_39">
    <path clip-path="url(#pa6961db4c0)" d="M 115.363636 389.273902 
L 133.480519 388.021126 
L 151.597403 400.54129 
L 169.714286 382.73579 
L 187.831169 387.356111 
L 205.948052 415.436123 
L 224.064935 403.827833 
L 242.181818 392.219723 
L 260.298701 402.738973 
L 278.415584 388.338686 
L 296.532468 375.86082 
L 314.649351 387.588623 
L 332.766234 386.05408 
L 350.883117 380.346841 
L 369 406.977822 
L 387.116883 396.635776 
L 405.233766 409.771909 
L 423.350649 397.735059 
L 441.467532 400.825068 
L 459.584416 395.620651 
L 477.701299 405.063989 
L 495.818182 391.347847 
L 513.935065 387.88145 
L 532.051948 391.12805 
L 550.168831 396.127718 
L 568.285714 387.88145 
L 586.402597 394.350508 
L 604.519481 387.88145 
L 622.636364 387.88145 
" style="fill:none;stroke:#8c564b;stroke-linecap:square;stroke-width:1.5;"/>
   </g>
   <g id="line2d_40">
    <path clip-path="url(#pa6961db4c0)" d="M 115.363636 370.002408 
L 133.480519 368.363669 
L 151.597403 407.278082 
L 169.714286 365.294434 
L 187.831169 372.978116 
L 205.948052 395.080678 
L 224.064935 398.167755 
L 242.181818 392.219723 
L 260.298701 407.317203 
L 278.415584 415.145156 
L 296.532468 395.712841 
L 314.649351 411.943909 
L 332.766234 379.571545 
L 350.883117 367.599912 
L 369 396.438289 
L 387.116883 383.715555 
L 405.233766 392.763498 
L 423.350649 402.452824 
L 441.467532 404.391886 
L 459.584416 395.620651 
L 477.701299 405.938364 
L 495.818182 391.347847 
L 513.935065 387.88145 
L 532.051948 385.784393 
L 550.168831 396.127718 
L 568.285714 387.88145 
L 586.402597 394.350508 
L 604.519481 387.88145 
L 622.636364 387.88145 
" style="fill:none;stroke:#e377c2;stroke-linecap:square;stroke-width:1.5;"/>
   </g>
   <g id="line2d_41">
    <path clip-path="url(#pa6961db4c0)" d="M 115.363636 389.601575 
L 133.480519 392.477593 
L 151.597403 383.170575 
L 169.714286 383.777248 
L 187.831169 396.092879 
L 205.948052 424.34867 
L 224.064935 399.308274 
L 242.181818 392.219723 
L 260.298701 380.595283 
L 278.415584 371.801921 
L 296.532468 386.830291 
L 314.649351 382.259688 
L 332.766234 394.973963 
L 350.883117 388.540626 
L 369 412.1172 
L 387.116883 376.677478 
L 405.233766 411.005278 
L 423.350649 403.423986 
L 441.467532 413.306617 
L 459.584416 395.620651 
L 477.701299 429.660417 
L 495.818182 391.347847 
L 513.935065 387.88145 
L 532.051948 408.118894 
L 550.168831 396.127718 
L 568.285714 387.88145 
L 586.402597 394.350508 
L 604.519481 387.88145 
L 622.636364 387.88145 
" style="fill:none;stroke:#7f7f7f;stroke-linecap:square;stroke-width:1.5;"/>
   </g>
   <g id="line2d_42">
    <path clip-path="url(#pa6961db4c0)" d="M 115.363636 381.240502 
L 133.480519 397.55839 
L 151.597403 376.097816 
L 169.714286 378.885224 
L 187.831169 395.501638 
L 205.948052 393.600038 
L 224.064935 387.15325 
L 242.181818 392.219723 
L 260.298701 400.719131 
L 278.415584 384.502653 
L 296.532468 389.812687 
L 314.649351 359.766148 
L 332.766234 392.27639 
L 350.883117 401.628788 
L 369 394.893053 
L 387.116883 382.39388 
L 405.233766 392.922878 
L 423.350649 389.506322 
L 441.467532 391.906597 
L 459.584416 395.620651 
L 477.701299 394.604972 
L 495.818182 391.347847 
L 513.935065 387.88145 
L 532.051948 369.985253 
L 550.168831 396.127718 
L 568.285714 387.88145 
L 586.402597 394.350508 
L 604.519481 387.88145 
L 622.636364 387.88145 
" style="fill:none;stroke:#bcbd22;stroke-linecap:square;stroke-width:1.5;"/>
   </g>
   <g id="line2d_43">
    <path clip-path="url(#pa6961db4c0)" d="M 115.363636 332.966155 
L 133.480519 322.647208 
L 151.597403 391.872598 
L 169.714286 353.320201 
L 187.831169 326.014857 
L 205.948052 412.131994 
L 224.064935 314.629495 
L 242.181818 392.219723 
L 260.298701 419.135016 
L 278.415584 437.33337 
L 296.532468 476.466476 
L 314.649351 377.260417 
L 332.766234 337.396217 
L 350.883117 330.644011 
L 369 416.352226 
L 387.116883 458.235637 
L 405.233766 329.139103 
L 423.350649 331.319265 
L 441.467532 390.139835 
L 459.584416 395.620651 
L 477.701299 340.589532 
L 495.818182 391.347847 
L 513.935065 387.88145 
L 532.051948 367.369433 
L 550.168831 396.127718 
L 568.285714 387.88145 
L 586.402597 394.350508 
L 604.519481 387.88145 
L 622.636364 387.88145 
" style="fill:none;stroke:#17becf;stroke-linecap:square;stroke-width:1.5;"/>
   </g>
   <g id="line2d_44">
    <path clip-path="url(#pa6961db4c0)" d="M 115.363636 400.972326 
L 133.480519 421.735307 
L 151.597403 344.686596 
L 169.714286 402.914542 
L 187.831169 424.712818 
L 205.948052 372.692034 
L 224.064935 402.443391 
L 242.181818 392.219723 
L 260.298701 355.99704 
L 278.415584 353.460488 
L 296.532468 375.675149 
L 314.649351 407.044888 
L 332.766234 425.670488 
L 350.883117 424.325838 
L 369 359.908315 
L 387.116883 403.030431 
L 405.233766 401.410807 
L 423.350649 396.685889 
L 441.467532 404.773573 
L 459.584416 377.533063 
L 477.701299 417.992223 
L 495.818182 391.347847 
L 513.935065 387.88145 
L 532.051948 399.738997 
L 550.168831 396.127718 
L 568.285714 387.88145 
L 586.402597 394.350508 
L 604.519481 387.88145 
L 622.636364 387.88145 
" style="fill:none;stroke:#1f77b4;stroke-linecap:square;stroke-width:1.5;"/>
   </g>
   <g id="line2d_45">
    <path clip-path="url(#pa6961db4c0)" d="M 115.363636 393.714827 
L 133.480519 383.243054 
L 151.597403 413.830107 
L 169.714286 387.006582 
L 187.831169 382.204098 
L 205.948052 381.637374 
L 224.064935 383.96258 
L 242.181818 392.219723 
L 260.298701 402.8429 
L 278.415584 400.000883 
L 296.532468 369.95115 
L 314.649351 382.278059 
L 332.766234 382.157506 
L 350.883117 381.10471 
L 369 390.373096 
L 387.116883 370.448434 
L 405.233766 375.557258 
L 423.350649 383.983136 
L 441.467532 390.428063 
L 459.584416 395.620651 
L 477.701299 375.358774 
L 495.818182 391.347847 
L 513.935065 387.88145 
L 532.051948 381.353446 
L 550.168831 377.769475 
L 568.285714 387.88145 
L 586.402597 394.350508 
L 604.519481 387.88145 
L 622.636364 387.88145 
" style="fill:none;stroke:#ff7f0e;stroke-linecap:square;stroke-width:1.5;"/>
   </g>
   <g id="line2d_46">
    <path clip-path="url(#pa6961db4c0)" d="M 115.363636 341.516737 
L 133.480519 410.330239 
L 151.597403 320.576444 
L 169.714286 340.599473 
L 187.831169 415.794241 
L 205.948052 419.841336 
L 224.064935 427.311343 
L 242.181818 392.219723 
L 260.298701 409.288954 
L 278.415584 372.704515 
L 296.532468 424.599796 
L 314.649351 421.507809 
L 332.766234 423.554954 
L 350.883117 426.310169 
L 369 420.482712 
L 387.116883 384.701062 
L 405.233766 418.760243 
L 423.350649 422.960997 
L 441.467532 410.126171 
L 459.584416 196.841928 
L 477.701299 379.587946 
L 495.818182 391.347847 
L 513.935065 387.88145 
L 532.051948 408.118894 
L 550.168831 396.127718 
L 568.285714 387.88145 
L 586.402597 394.350508 
L 604.519481 387.88145 
L 622.636364 387.88145 
" style="fill:none;stroke:#2ca02c;stroke-linecap:square;stroke-width:1.5;"/>
   </g>
   <g id="line2d_47">
    <path clip-path="url(#pa6961db4c0)" d="M 115.363636 445.429749 
L 133.480519 436.190731 
L 151.597403 371.70128 
L 169.714286 442.619335 
L 187.831169 429.139243 
L 205.948052 344.360142 
L 224.064935 418.953766 
L 242.181818 392.219723 
L 260.298701 342.284801 
L 278.415584 342.836129 
L 296.532468 329.654138 
L 314.649351 363.309179 
L 332.766234 417.258542 
L 350.883117 426.747281 
L 369 338.462189 
L 387.116883 334.912165 
L 405.233766 408.554564 
L 423.350649 414.252702 
L 441.467532 398.940899 
L 459.584416 395.620651 
L 477.701299 399.955892 
L 495.818182 391.347847 
L 513.935065 387.88145 
L 532.051948 404.615516 
L 550.168831 396.127718 
L 568.285714 387.88145 
L 586.402597 394.350508 
L 604.519481 387.88145 
L 622.636364 387.88145 
" style="fill:none;stroke:#d62728;stroke-linecap:square;stroke-width:1.5;"/>
   </g>
   <g id="line2d_48">
    <path clip-path="url(#pa6961db4c0)" d="M 115.363636 392.35191 
L 133.480519 389.347664 
L 151.597403 379.296474 
L 169.714286 397.744305 
L 187.831169 383.948283 
L 205.948052 377.227444 
L 224.064935 387.184066 
L 242.181818 392.219723 
L 260.298701 375.646275 
L 278.415584 386.040568 
L 296.532468 395.448584 
L 314.649351 339.284247 
L 332.766234 380.95389 
L 350.883117 385.189371 
L 369 382.455332 
L 387.116883 401.115163 
L 405.233766 378.958497 
L 423.350649 386.889474 
L 441.467532 381.669217 
L 459.584416 395.620651 
L 477.701299 374.58513 
L 495.818182 391.347847 
L 513.935065 387.88145 
L 532.051948 397.054623 
L 550.168831 368.301713 
L 568.285714 387.88145 
L 586.402597 394.350508 
L 604.519481 387.88145 
L 622.636364 387.88145 
" style="fill:none;stroke:#9467bd;stroke-linecap:square;stroke-width:1.5;"/>
   </g>
   <g id="line2d_49">
    <path clip-path="url(#pa6961db4c0)" d="M 115.363636 411.264872 
L 133.480519 391.071273 
L 151.597403 394.906838 
L 169.714286 420.281275 
L 187.831169 372.591707 
L 205.948052 384.468511 
L 224.064935 360.939372 
L 242.181818 392.219723 
L 260.298701 377.036762 
L 278.415584 386.020424 
L 296.532468 392.981251 
L 314.649351 317.156131 
L 332.766234 348.022319 
L 350.883117 370.630334 
L 369 380.088979 
L 387.116883 387.264558 
L 405.233766 329.488642 
L 423.350649 334.568081 
L 441.467532 313.400804 
L 459.584416 395.620651 
L 477.701299 348.797988 
L 495.818182 391.347847 
L 513.935065 387.88145 
L 532.051948 374.275992 
L 550.168831 396.127718 
L 568.285714 387.88145 
L 586.402597 325.543827 
L 604.519481 387.88145 
L 622.636364 387.88145 
" style="fill:none;stroke:#8c564b;stroke-linecap:square;stroke-width:1.5;"/>
   </g>
   <g id="line2d_50">
    <path clip-path="url(#pa6961db4c0)" d="M 115.363636 395.322778 
L 133.480519 407.03846 
L 151.597403 381.948542 
L 169.714286 385.038905 
L 187.831169 411.578152 
L 205.948052 372.497006 
L 224.064935 413.152189 
L 242.181818 392.219723 
L 260.298701 381.903468 
L 278.415584 381.047259 
L 296.532468 362.870638 
L 314.649351 415.759279 
L 332.766234 413.422262 
L 350.883117 408.985893 
L 369 368.840876 
L 387.116883 378.624594 
L 405.233766 403.797585 
L 423.350649 407.460074 
L 441.467532 410.131208 
L 459.584416 395.620651 
L 477.701299 427.136102 
L 495.818182 391.347847 
L 513.935065 387.88145 
L 532.051948 408.118894 
L 550.168831 396.127718 
L 568.285714 387.88145 
L 586.402597 394.350508 
L 604.519481 387.88145 
L 622.636364 387.88145 
" style="fill:none;stroke:#e377c2;stroke-linecap:square;stroke-width:1.5;"/>
   </g>
   <g id="line2d_51">
    <path clip-path="url(#pa6961db4c0)" d="M 115.363636 424.400281 
L 133.480519 426.582297 
L 151.597403 366.89894 
L 169.714286 418.52896 
L 187.831169 428.123082 
L 205.948052 369.960068 
L 224.064935 402.714589 
L 242.181818 392.219723 
L 260.298701 347.508038 
L 278.415584 342.870358 
L 296.532468 347.138839 
L 314.649351 400.439999 
L 332.766234 426.948949 
L 350.883117 429.533015 
L 369 363.635834 
L 387.116883 349.625724 
L 405.233766 406.104978 
L 423.350649 391.544469 
L 441.467532 390.557589 
L 459.584416 395.620651 
L 477.701299 409.25906 
L 495.818182 391.347847 
L 513.935065 387.88145 
L 532.051948 403.181899 
L 550.168831 396.127718 
L 568.285714 387.88145 
L 586.402597 394.350508 
L 604.519481 387.88145 
L 622.636364 387.88145 
" style="fill:none;stroke:#7f7f7f;stroke-linecap:square;stroke-width:1.5;"/>
   </g>
   <g id="line2d_52">
    <path clip-path="url(#pa6961db4c0)" d="M 115.363636 444.456614 
L 133.480519 406.752219 
L 151.597403 391.605835 
L 169.714286 451.952376 
L 187.831169 389.621528 
L 205.948052 336.777732 
L 224.064935 360.236743 
L 242.181818 392.219723 
L 260.298701 341.64424 
L 278.415584 365.101684 
L 296.532468 365.132062 
L 314.649351 323.612907 
L 332.766234 368.764975 
L 350.883117 389.73305 
L 369 338.988914 
L 387.116883 335.85766 
L 405.233766 354.500034 
L 423.350649 366.86772 
L 441.467532 335.24759 
L 459.584416 395.620651 
L 477.701299 338.971547 
L 495.818182 391.347847 
L 513.935065 387.88145 
L 532.051948 346.642092 
L 550.168831 396.127718 
L 568.285714 387.88145 
L 586.402597 394.350508 
L 604.519481 387.88145 
L 622.636364 387.88145 
" style="fill:none;stroke:#bcbd22;stroke-linecap:square;stroke-width:1.5;"/>
   </g>
   <g id="line2d_53">
    <path clip-path="url(#pa6961db4c0)" d="M 115.363636 356.988609 
L 133.480519 336.507237 
L 151.597403 442.923092 
L 169.714286 368.011 
L 187.831169 328.889463 
L 205.948052 347.780724 
L 224.064935 384.028527 
L 242.181818 392.219723 
L 260.298701 440.623358 
L 278.415584 456.22854 
L 296.532468 414.858589 
L 314.649351 363.848312 
L 332.766234 330.364931 
L 350.883117 341.336251 
L 369 390.978182 
L 387.116883 429.336438 
L 405.233766 372.5149 
L 423.350649 397.991713 
L 441.467532 360.911215 
L 459.584416 395.620651 
L 477.701299 276.34462 
L 495.818182 391.347847 
L 513.935065 387.88145 
L 532.051948 367.615206 
L 550.168831 396.127718 
L 568.285714 387.88145 
L 586.402597 394.350508 
L 604.519481 387.88145 
L 622.636364 387.88145 
" style="fill:none;stroke:#17becf;stroke-linecap:square;stroke-width:1.5;"/>
   </g>
   <g id="line2d_54">
    <path clip-path="url(#pa6961db4c0)" d="M 115.363636 358.308688 
L 133.480519 354.239751 
L 151.597403 386.133118 
L 169.714286 365.332002 
L 187.831169 363.200375 
L 205.948052 413.283123 
L 224.064935 343.316118 
L 242.181818 392.219723 
L 260.298701 399.923647 
L 278.415584 407.378441 
L 296.532468 425.624653 
L 314.649351 415.243398 
L 332.766234 374.979636 
L 350.883117 361.632128 
L 369 414.350634 
L 387.116883 421.713741 
L 405.233766 356.418754 
L 423.350649 361.088732 
L 441.467532 417.55004 
L 459.584416 272.358774 
L 477.701299 399.781152 
L 495.818182 391.347847 
L 513.935065 387.88145 
L 532.051948 351.01223 
L 550.168831 396.127718 
L 568.285714 387.88145 
L 586.402597 394.350508 
L 604.519481 387.88145 
L 622.636364 387.88145 
" style="fill:none;stroke:#1f77b4;stroke-linecap:square;stroke-width:1.5;"/>
   </g>
   <g id="line2d_55">
    <path clip-path="url(#pa6961db4c0)" d="M 115.363636 382.196962 
L 133.480519 369.865838 
L 151.597403 416.239443 
L 169.714286 372.072387 
L 187.831169 375.081715 
L 205.948052 441.011522 
L 224.064935 370.824985 
L 242.181818 392.219723 
L 260.298701 402.304831 
L 278.415584 396.578072 
L 296.532468 381.844232 
L 314.649351 402.461405 
L 332.766234 380.661428 
L 350.883117 372.028281 
L 369 424.784008 
L 387.116883 381.982389 
L 405.233766 365.181078 
L 423.350649 370.663067 
L 441.467532 382.501472 
L 459.584416 395.620651 
L 477.701299 420.955168 
L 495.818182 391.347847 
L 513.935065 387.88145 
L 532.051948 377.807889 
L 550.168831 396.127718 
L 568.285714 387.88145 
L 586.402597 394.350508 
L 604.519481 387.88145 
L 622.636364 387.88145 
" style="fill:none;stroke:#ff7f0e;stroke-linecap:square;stroke-width:1.5;"/>
   </g>
   <g id="line2d_56">
    <path clip-path="url(#pa6961db4c0)" d="M 115.363636 414.843929 
L 133.480519 398.281758 
L 151.597403 382.099849 
L 169.714286 419.648881 
L 187.831169 392.016953 
L 205.948052 389.510024 
L 224.064935 360.075426 
L 242.181818 392.219723 
L 260.298701 360.86596 
L 278.415584 365.31412 
L 296.532468 377.198509 
L 314.649351 361.622347 
L 332.766234 384.998453 
L 350.883117 390.544335 
L 369 381.277702 
L 387.116883 369.886059 
L 405.233766 353.373944 
L 423.350649 362.698243 
L 441.467532 374.33583 
L 459.584416 395.620651 
L 477.701299 389.774398 
L 495.818182 391.347847 
L 513.935065 387.88145 
L 532.051948 362.485356 
L 550.168831 396.127718 
L 568.285714 387.88145 
L 586.402597 394.350508 
L 604.519481 387.88145 
L 622.636364 387.88145 
" style="fill:none;stroke:#2ca02c;stroke-linecap:square;stroke-width:1.5;"/>
   </g>
   <g id="line2d_57">
    <path clip-path="url(#pa6961db4c0)" d="M 115.363636 374.733198 
L 133.480519 385.128151 
L 151.597403 370.909109 
L 169.714286 377.823773 
L 187.831169 386.273474 
L 205.948052 401.062149 
L 224.064935 322.916083 
L 242.181818 392.219723 
L 260.298701 391.941079 
L 278.415584 389.499791 
L 296.532468 411.94965 
L 314.649351 386.02814 
L 332.766234 389.239762 
L 350.883117 387.137435 
L 369 396.764782 
L 387.116883 378.221996 
L 405.233766 321.13068 
L 423.350649 316.706662 
L 441.467532 388.71158 
L 459.584416 395.620651 
L 477.701299 374.66714 
L 495.818182 391.347847 
L 513.935065 387.88145 
L 532.051948 350.214631 
L 550.168831 396.127718 
L 568.285714 387.88145 
L 586.402597 394.350508 
L 604.519481 387.88145 
L 622.636364 387.88145 
" style="fill:none;stroke:#d62728;stroke-linecap:square;stroke-width:1.5;"/>
   </g>
   <g id="line2d_58">
    <path clip-path="url(#pa6961db4c0)" d="M 115.363636 388.052283 
L 133.480519 414.087189 
L 151.597403 367.921226 
L 169.714286 378.922308 
L 187.831169 416.968922 
L 205.948052 389.139436 
L 224.064935 408.037267 
L 242.181818 392.219723 
L 260.298701 394.641897 
L 278.415584 371.88226 
L 296.532468 369.383301 
L 314.649351 411.151682 
L 332.766234 417.978391 
L 350.883117 415.600599 
L 369 388.959946 
L 387.116883 366.490693 
L 405.233766 403.707842 
L 423.350649 407.728332 
L 441.467532 412.637826 
L 459.584416 395.620651 
L 477.701299 416.712032 
L 495.818182 391.347847 
L 513.935065 387.88145 
L 532.051948 401.430849 
L 550.168831 370.897645 
L 568.285714 387.88145 
L 586.402597 394.350508 
L 604.519481 387.88145 
L 622.636364 387.88145 
" style="fill:none;stroke:#9467bd;stroke-linecap:square;stroke-width:1.5;"/>
   </g>
   <g id="line2d_59">
    <path clip-path="url(#pa6961db4c0)" d="M 115.363636 423.87731 
L 133.480519 418.507741 
L 151.597403 374.134655 
L 169.714286 425.403052 
L 187.831169 416.072795 
L 205.948052 358.752664 
L 224.064935 384.277965 
L 242.181818 392.219723 
L 260.298701 357.123854 
L 278.415584 357.831635 
L 296.532468 352.879469 
L 314.649351 368.662935 
L 332.766234 412.408185 
L 350.883117 413.764605 
L 369 351.923252 
L 387.116883 370.428047 
L 405.233766 372.794482 
L 423.350649 380.065114 
L 441.467532 388.606468 
L 459.584416 395.620651 
L 477.701299 391.07828 
L 495.818182 391.347847 
L 513.935065 387.88145 
L 532.051948 383.930197 
L 550.168831 396.127718 
L 568.285714 387.88145 
L 586.402597 279.600621 
L 604.519481 387.88145 
L 622.636364 387.88145 
" style="fill:none;stroke:#8c564b;stroke-linecap:square;stroke-width:1.5;"/>
   </g>
   <g id="line2d_60">
    <path clip-path="url(#pa6961db4c0)" d="M 115.363636 362.303367 
L 133.480519 379.727708 
L 151.597403 373.002282 
L 169.714286 367.993988 
L 187.831169 388.277404 
L 205.948052 373.871596 
L 224.064935 366.598916 
L 242.181818 392.219723 
L 260.298701 402.684942 
L 278.415584 397.738423 
L 296.532468 406.967492 
L 314.649351 425.621535 
L 332.766234 401.175292 
L 350.883117 394.721781 
L 369 385.895192 
L 387.116883 418.518901 
L 405.233766 384.735098 
L 423.350649 370.54561 
L 441.467532 406.868135 
L 459.584416 395.620651 
L 477.701299 373.175001 
L 495.818182 391.347847 
L 513.935065 387.88145 
L 532.051948 381.257024 
L 550.168831 396.127718 
L 568.285714 387.88145 
L 586.402597 394.350508 
L 604.519481 387.88145 
L 622.636364 387.88145 
" style="fill:none;stroke:#e377c2;stroke-linecap:square;stroke-width:1.5;"/>
   </g>
   <g id="line2d_61">
    <path clip-path="url(#pa6961db4c0)" d="M 115.363636 409.453276 
L 133.480519 382.818378 
L 151.597403 419.372699 
L 169.714286 406.980658 
L 187.831169 375.323974 
L 205.948052 392.961368 
L 224.064935 399.771177 
L 242.181818 392.219723 
L 260.298701 380.4308 
L 278.415584 391.22026 
L 296.532468 369.460356 
L 314.649351 364.673307 
L 332.766234 364.228308 
L 350.883117 369.842166 
L 369 392.524959 
L 387.116883 358.215336 
L 405.233766 391.848415 
L 423.350649 397.404874 
L 441.467532 356.93718 
L 459.584416 395.620651 
L 477.701299 370.703452 
L 495.818182 391.347847 
L 513.935065 387.88145 
L 532.051948 408.118894 
L 550.168831 396.127718 
L 568.285714 387.88145 
L 586.402597 394.350508 
L 604.519481 387.88145 
L 622.636364 387.88145 
" style="fill:none;stroke:#7f7f7f;stroke-linecap:square;stroke-width:1.5;"/>
   </g>
   <g id="line2d_62">
    <path clip-path="url(#pa6961db4c0)" d="M 115.363636 335.746371 
L 133.480519 336.047532 
L 151.597403 415.041827 
L 169.714286 341.593287 
L 187.831169 336.084291 
L 205.948052 441.509776 
L 224.064935 337.365961 
L 242.181818 392.219723 
L 260.298701 446.345463 
L 278.415584 427.773131 
L 296.532468 446.595132 
L 314.649351 404.392443 
L 332.766234 343.372595 
L 350.883117 352.762518 
L 369 451.82487 
L 387.116883 385.41265 
L 405.233766 342.644414 
L 423.350649 329.378321 
L 441.467532 365.249228 
L 459.584416 231.80203 
L 477.701299 317.178645 
L 495.818182 391.347847 
L 513.935065 387.88145 
L 532.051948 370.170685 
L 550.168831 396.127718 
L 568.285714 387.88145 
L 586.402597 394.350508 
L 604.519481 387.88145 
L 622.636364 387.88145 
" style="fill:none;stroke:#bcbd22;stroke-linecap:square;stroke-width:1.5;"/>
   </g>
   <g id="line2d_63">
    <path clip-path="url(#pa6961db4c0)" d="M 115.363636 412.499565 
L 133.480519 414.787831 
L 151.597403 376.844859 
L 169.714286 410.1237 
L 187.831169 408.057525 
L 205.948052 394.071857 
L 224.064935 408.872256 
L 242.181818 392.219723 
L 260.298701 366.15901 
L 278.415584 361.294097 
L 296.532468 363.612593 
L 314.649351 363.323462 
L 332.766234 395.811211 
L 350.883117 403.180898 
L 369 385.267989 
L 387.116883 379.039986 
L 405.233766 401.961402 
L 423.350649 404.475417 
L 441.467532 379.110421 
L 459.584416 395.620651 
L 477.701299 404.492715 
L 495.818182 391.347847 
L 513.935065 387.88145 
L 532.051948 397.288814 
L 550.168831 396.127718 
L 568.285714 387.88145 
L 586.402597 394.350508 
L 604.519481 387.88145 
L 622.636364 387.88145 
" style="fill:none;stroke:#17becf;stroke-linecap:square;stroke-width:1.5;"/>
   </g>
   <g id="line2d_64">
    <path clip-path="url(#pa6961db4c0)" d="M 115.363636 346.241493 
L 133.480519 342.941002 
L 151.597403 422.159316 
L 169.714286 346.245957 
L 187.831169 353.782452 
L 205.948052 436.641105 
L 224.064935 362.96175 
L 242.181818 392.219723 
L 260.298701 437.086984 
L 278.415584 424.39364 
L 296.532468 410.728505 
L 314.649351 410.41994 
L 332.766234 366.695891 
L 350.883117 358.905117 
L 369 438.331519 
L 387.116883 435.585612 
L 405.233766 389.443395 
L 423.350649 363.41604 
L 441.467532 422.818967 
L 459.584416 395.620651 
L 477.701299 397.146746 
L 495.818182 391.347847 
L 513.935065 387.88145 
L 532.051948 383.912123 
L 550.168831 396.127718 
L 568.285714 387.88145 
L 586.402597 394.350508 
L 604.519481 387.88145 
L 622.636364 387.88145 
" style="fill:none;stroke:#1f77b4;stroke-linecap:square;stroke-width:1.5;"/>
   </g>
   <g id="line2d_65">
    <path clip-path="url(#pa6961db4c0)" d="M 115.363636 390.314468 
L 133.480519 419.343325 
L 151.597403 365.814447 
L 169.714286 380.826915 
L 187.831169 425.245871 
L 205.948052 362.866677 
L 224.064935 414.690149 
L 242.181818 392.219723 
L 260.298701 385.425556 
L 278.415584 363.616136 
L 296.532468 365.796707 
L 314.649351 425.673976 
L 332.766234 433.929909 
L 350.883117 429.11498 
L 369 380.714652 
L 387.116883 355.022209 
L 405.233766 417.076923 
L 423.350649 416.521787 
L 441.467532 405.269242 
L 459.584416 395.620651 
L 477.701299 388.418062 
L 495.818182 391.347847 
L 513.935065 387.88145 
L 532.051948 408.118894 
L 550.168831 396.127718 
L 568.285714 387.88145 
L 586.402597 394.350508 
L 604.519481 387.88145 
L 622.636364 387.88145 
" style="fill:none;stroke:#ff7f0e;stroke-linecap:square;stroke-width:1.5;"/>
   </g>
   <g id="line2d_66">
    <path clip-path="url(#pa6961db4c0)" d="M 115.363636 376.444423 
L 133.480519 377.358769 
L 151.597403 400.833053 
L 169.714286 374.129414 
L 187.831169 379.532651 
L 205.948052 354.854079 
L 224.064935 407.442295 
L 242.181818 392.219723 
L 260.298701 405.770307 
L 278.415584 408.208178 
L 296.532468 390.250812 
L 314.649351 389.551916 
L 332.766234 388.027334 
L 350.883117 385.147726 
L 369 382.253242 
L 387.116883 367.259097 
L 405.233766 418.924899 
L 423.350649 410.350176 
L 441.467532 378.187598 
L 459.584416 395.620651 
L 477.701299 353.020089 
L 495.818182 391.347847 
L 513.935065 387.88145 
L 532.051948 408.118894 
L 550.168831 396.127718 
L 568.285714 387.88145 
L 586.402597 394.350508 
L 604.519481 387.88145 
L 622.636364 387.88145 
" style="fill:none;stroke:#2ca02c;stroke-linecap:square;stroke-width:1.5;"/>
   </g>
   <g id="line2d_67">
    <path clip-path="url(#pa6961db4c0)" d="M 115.363636 370.878993 
L 133.480519 374.959788 
L 151.597403 389.080282 
L 169.714286 377.036803 
L 187.831169 371.22716 
L 205.948052 408.453357 
L 224.064935 354.282252 
L 242.181818 392.219723 
L 260.298701 406.131427 
L 278.415584 401.564404 
L 296.532468 409.003017 
L 314.649351 358.419167 
L 332.766234 369.705884 
L 350.883117 374.282979 
L 369 408.799925 
L 387.116883 429.91059 
L 405.233766 327.113195 
L 423.350649 338.013114 
L 441.467532 357.24724 
L 459.584416 395.620651 
L 477.701299 387.559865 
L 495.818182 391.347847 
L 513.935065 387.88145 
L 532.051948 374.731164 
L 550.168831 396.127718 
L 568.285714 387.88145 
L 586.402597 394.350508 
L 604.519481 387.88145 
L 622.636364 387.88145 
" style="fill:none;stroke:#d62728;stroke-linecap:square;stroke-width:1.5;"/>
   </g>
   <g id="line2d_68">
    <path clip-path="url(#pa6961db4c0)" d="M 115.363636 429.177106 
L 133.480519 410.173455 
L 151.597403 382.82169 
L 169.714286 428.451235 
L 187.831169 409.850756 
L 205.948052 372.030018 
L 224.064935 371.169929 
L 242.181818 392.219723 
L 260.298701 346.084759 
L 278.415584 349.417529 
L 296.532468 349.818261 
L 314.649351 387.980971 
L 332.766234 412.731165 
L 350.883117 412.206578 
L 369 369.834774 
L 387.116883 356.058681 
L 405.233766 384.095798 
L 423.350649 374.762222 
L 441.467532 390.566055 
L 459.584416 395.620651 
L 477.701299 381.135765 
L 495.818182 391.347847 
L 513.935065 387.88145 
L 532.051948 345.29801 
L 550.168831 396.127718 
L 568.285714 387.88145 
L 586.402597 394.350508 
L 604.519481 387.88145 
L 622.636364 387.88145 
" style="fill:none;stroke:#9467bd;stroke-linecap:square;stroke-width:1.5;"/>
   </g>
   <g id="line2d_69">
    <path clip-path="url(#pa6961db4c0)" d="M 115.363636 346.100759 
L 133.480519 333.331568 
L 151.597403 435.968227 
L 169.714286 341.671379 
L 187.831169 353.26373 
L 205.948052 419.163081 
L 224.064935 338.273567 
L 242.181818 392.219723 
L 260.298701 426.855343 
L 278.415584 437.795992 
L 296.532468 406.015918 
L 314.649351 445.311715 
L 332.766234 369.954318 
L 350.883117 352.236161 
L 369 422.089677 
L 387.116883 400.364402 
L 405.233766 432.369357 
L 423.350649 400.704481 
L 441.467532 429.667604 
L 459.584416 395.620651 
L 477.701299 421.301016 
L 495.818182 391.347847 
L 513.935065 387.88145 
L 532.051948 182.494849 
L 550.168831 396.127718 
L 568.285714 387.88145 
L 586.402597 394.350508 
L 604.519481 387.88145 
L 622.636364 387.88145 
" style="fill:none;stroke:#8c564b;stroke-linecap:square;stroke-width:1.5;"/>
   </g>
   <g id="line2d_70">
    <path clip-path="url(#pa6961db4c0)" d="M 115.363636 344.071142 
L 133.480519 345.92528 
L 151.597403 413.406649 
L 169.714286 348.860287 
L 187.831169 351.244224 
L 205.948052 428.385501 
L 224.064935 418.922488 
L 242.181818 392.219723 
L 260.298701 424.673928 
L 278.415584 427.696923 
L 296.532468 424.055499 
L 314.649351 406.731883 
L 332.766234 358.225562 
L 350.883117 349.123943 
L 369 426.788174 
L 387.116883 432.886302 
L 405.233766 416.811676 
L 423.350649 418.1558 
L 441.467532 414.774673 
L 459.584416 395.620651 
L 477.701299 396.645705 
L 495.818182 391.347847 
L 513.935065 387.88145 
L 532.051948 408.118894 
L 550.168831 396.127718 
L 568.285714 387.88145 
L 586.402597 394.350508 
L 604.519481 387.88145 
L 622.636364 387.88145 
" style="fill:none;stroke:#e377c2;stroke-linecap:square;stroke-width:1.5;"/>
   </g>
   <g id="line2d_71">
    <path clip-path="url(#pa6961db4c0)" d="M 115.363636 398.988047 
L 133.480519 368.626876 
L 151.597403 423.34612 
L 169.714286 402.342161 
L 187.831169 359.712451 
L 205.948052 386.301169 
L 224.064935 335.813582 
L 242.181818 392.219723 
L 260.298701 390.472332 
L 278.415584 408.557907 
L 296.532468 386.33766 
L 314.649351 372.14502 
L 332.766234 349.474781 
L 350.883117 357.605356 
L 369 388.305018 
L 387.116883 399.424209 
L 405.233766 324.981546 
L 423.350649 323.090623 
L 441.467532 336.213663 
L 459.584416 395.620651 
L 477.701299 366.675502 
L 495.818182 391.347847 
L 513.935065 387.88145 
L 532.051948 383.34515 
L 550.168831 396.127718 
L 568.285714 387.88145 
L 586.402597 394.350508 
L 604.519481 387.88145 
L 622.636364 387.88145 
" style="fill:none;stroke:#7f7f7f;stroke-linecap:square;stroke-width:1.5;"/>
   </g>
   <g id="line2d_72">
    <path clip-path="url(#pa6961db4c0)" d="M 115.363636 387.562834 
L 133.480519 376.602976 
L 151.597403 409.279741 
L 169.714286 382.779887 
L 187.831169 376.534348 
L 205.948052 408.313208 
L 224.064935 400.201251 
L 242.181818 392.219723 
L 260.298701 398.51041 
L 278.415584 392.363913 
L 296.532468 382.916978 
L 314.649351 373.434805 
L 332.766234 379.601688 
L 350.883117 375.309632 
L 369 412.930364 
L 387.116883 382.703515 
L 405.233766 382.296638 
L 423.350649 397.844328 
L 441.467532 400.907679 
L 459.584416 395.620651 
L 477.701299 392.380385 
L 495.818182 391.347847 
L 513.935065 387.88145 
L 532.051948 408.118894 
L 550.168831 396.127718 
L 568.285714 387.88145 
L 586.402597 394.350508 
L 604.519481 387.88145 
L 622.636364 387.88145 
" style="fill:none;stroke:#bcbd22;stroke-linecap:square;stroke-width:1.5;"/>
   </g>
   <g id="line2d_73">
    <path clip-path="url(#pa6961db4c0)" d="M 115.363636 437.310509 
L 133.480519 420.324692 
L 151.597403 383.422277 
L 169.714286 438.195462 
L 187.831169 410.298249 
L 205.948052 340.823037 
L 224.064935 408.631167 
L 242.181818 172.897299 
L 260.298701 358.39208 
L 278.415584 361.767364 
L 296.532468 343.018142 
L 314.649351 351.275894 
L 332.766234 395.811829 
L 350.883117 409.540064 
L 369 340.149732 
L 387.116883 347.228739 
L 405.233766 406.085356 
L 423.350649 407.859364 
L 441.467532 363.454616 
L 459.584416 395.620651 
L 477.701299 374.592834 
L 495.818182 347.16877 
L 513.935065 387.88145 
L 532.051948 408.118894 
L 550.168831 360.813042 
L 568.285714 387.88145 
L 586.402597 394.350508 
L 604.519481 387.88145 
L 622.636364 387.88145 
" style="fill:none;stroke:#17becf;stroke-linecap:square;stroke-width:1.5;"/>
   </g>
   <g id="line2d_74">
    <path clip-path="url(#pa6961db4c0)" d="M 115.363636 402.345877 
L 133.480519 366.128004 
L 151.597403 425.265323 
L 169.714286 408.388009 
L 187.831169 349.619958 
L 205.948052 385.909518 
L 224.064935 386.684794 
L 242.181818 392.219723 
L 260.298701 388.763018 
L 278.415584 406.09061 
L 296.532468 396.391001 
L 314.649351 354.371234 
L 332.766234 331.668964 
L 350.883117 351.855559 
L 369 388.888918 
L 387.116883 377.408301 
L 405.233766 395.140656 
L 423.350649 390.710911 
L 441.467532 290.085477 
L 459.584416 395.620651 
L 477.701299 342.667689 
L 495.818182 391.347847 
L 513.935065 387.88145 
L 532.051948 408.118894 
L 550.168831 396.127718 
L 568.285714 387.88145 
L 586.402597 394.350508 
L 604.519481 387.88145 
L 622.636364 387.88145 
" style="fill:none;stroke:#1f77b4;stroke-linecap:square;stroke-width:1.5;"/>
   </g>
   <g id="line2d_75">
    <path clip-path="url(#pa6961db4c0)" d="M 115.363636 383.28969 
L 133.480519 395.582005 
L 151.597403 386.200364 
L 169.714286 371.003442 
L 187.831169 403.126761 
L 205.948052 396.404758 
L 224.064935 384.431651 
L 242.181818 392.219723 
L 260.298701 400.589611 
L 278.415584 384.490096 
L 296.532468 375.772709 
L 314.649351 417.099905 
L 332.766234 411.157693 
L 350.883117 398.354528 
L 369 397.62438 
L 387.116883 368.953827 
L 405.233766 389.599473 
L 423.350649 386.243599 
L 441.467532 416.020134 
L 459.584416 395.620651 
L 477.701299 419.371098 
L 495.818182 391.347847 
L 513.935065 387.88145 
L 532.051948 408.118894 
L 550.168831 396.127718 
L 568.285714 387.88145 
L 586.402597 394.350508 
L 604.519481 387.88145 
L 622.636364 387.88145 
" style="fill:none;stroke:#ff7f0e;stroke-linecap:square;stroke-width:1.5;"/>
   </g>
   <g id="line2d_76">
    <path clip-path="url(#pa6961db4c0)" d="M 115.363636 406.481881 
L 133.480519 376.428936 
L 151.597403 428.677536 
L 169.714286 402.553297 
L 187.831169 376.876598 
L 205.948052 376.256414 
L 224.064935 386.043054 
L 242.181818 392.219723 
L 260.298701 389.874194 
L 278.415584 397.169755 
L 296.532468 366.413269 
L 314.649351 383.735188 
L 332.766234 372.44582 
L 350.883117 372.830908 
L 369 380.761426 
L 387.116883 346.481961 
L 405.233766 397.811471 
L 423.350649 382.752248 
L 441.467532 372.956816 
L 459.584416 395.620651 
L 477.701299 378.213563 
L 495.818182 391.347847 
L 513.935065 387.88145 
L 532.051948 391.41502 
L 550.168831 396.127718 
L 568.285714 387.88145 
L 586.402597 394.350508 
L 604.519481 387.88145 
L 622.636364 387.88145 
" style="fill:none;stroke:#2ca02c;stroke-linecap:square;stroke-width:1.5;"/>
   </g>
   <g id="line2d_77">
    <path clip-path="url(#pa6961db4c0)" d="M 115.363636 418.456432 
L 133.480519 398.734368 
L 151.597403 384.766396 
L 169.714286 421.714682 
L 187.831169 391.657494 
L 205.948052 391.328648 
L 224.064935 374.675073 
L 242.181818 392.219723 
L 260.298701 356.019204 
L 278.415584 366.603353 
L 296.532468 371.523747 
L 314.649351 357.894794 
L 332.766234 384.684356 
L 350.883117 387.621666 
L 369 377.771965 
L 387.116883 398.747112 
L 405.233766 356.079383 
L 423.350649 375.2553 
L 441.467532 370.621871 
L 459.584416 395.620651 
L 477.701299 393.597873 
L 495.818182 391.347847 
L 513.935065 387.88145 
L 532.051948 386.150532 
L 550.168831 396.127718 
L 568.285714 387.88145 
L 586.402597 394.350508 
L 604.519481 387.88145 
L 622.636364 387.88145 
" style="fill:none;stroke:#d62728;stroke-linecap:square;stroke-width:1.5;"/>
   </g>
   <g id="line2d_78">
    <path clip-path="url(#pa6961db4c0)" d="M 115.363636 392.946064 
L 133.480519 402.205444 
L 151.597403 375.819404 
L 169.714286 387.318853 
L 187.831169 407.404159 
L 205.948052 390.982381 
L 224.064935 393.758919 
L 242.181818 392.219723 
L 260.298701 373.941116 
L 278.415584 369.494157 
L 296.532468 375.360624 
L 314.649351 402.717458 
L 332.766234 414.165641 
L 350.883117 408.643353 
L 369 389.627053 
L 387.116883 369.392591 
L 405.233766 393.210836 
L 423.350649 390.435133 
L 441.467532 407.801148 
L 459.584416 347.957243 
L 477.701299 404.951464 
L 495.818182 391.347847 
L 513.935065 387.88145 
L 532.051948 397.077774 
L 550.168831 396.127718 
L 568.285714 387.88145 
L 586.402597 394.350508 
L 604.519481 387.88145 
L 622.636364 387.88145 
" style="fill:none;stroke:#9467bd;stroke-linecap:square;stroke-width:1.5;"/>
   </g>
   <g id="line2d_79">
    <path clip-path="url(#pa6961db4c0)" d="M 115.363636 420.904569 
L 133.480519 410.073599 
L 151.597403 376.106319 
L 169.714286 416.269699 
L 187.831169 413.994349 
L 205.948052 375.198984 
L 224.064935 386.112282 
L 242.181818 392.219723 
L 260.298701 343.803421 
L 278.415584 352.179452 
L 296.532468 353.582544 
L 314.649351 407.520429 
L 332.766234 419.628227 
L 350.883117 415.049752 
L 369 373.433712 
L 387.116883 362.845834 
L 405.233766 376.288447 
L 423.350649 373.070021 
L 441.467532 400.760468 
L 459.584416 395.620651 
L 477.701299 393.84525 
L 495.818182 391.347847 
L 513.935065 387.88145 
L 532.051948 408.118894 
L 550.168831 286.001922 
L 568.285714 387.88145 
L 586.402597 394.350508 
L 604.519481 387.88145 
L 622.636364 387.88145 
" style="fill:none;stroke:#8c564b;stroke-linecap:square;stroke-width:1.5;"/>
   </g>
   <g id="line2d_80">
    <path clip-path="url(#pa6961db4c0)" d="M 115.363636 399.371903 
L 133.480519 389.192283 
L 151.597403 397.545008 
L 169.714286 394.082332 
L 187.831169 393.129619 
L 205.948052 348.64109 
L 224.064935 387.683578 
L 242.181818 392.219723 
L 260.298701 378.439141 
L 278.415584 394.395303 
L 296.532468 372.579978 
L 314.649351 404.64436 
L 332.766234 396.617234 
L 350.883117 393.099046 
L 369 355.680377 
L 387.116883 359.071637 
L 405.233766 398.91474 
L 423.350649 386.222165 
L 441.467532 395.433806 
L 459.584416 395.620651 
L 477.701299 385.788026 
L 495.818182 391.347847 
L 513.935065 387.88145 
L 532.051948 380.796158 
L 550.168831 396.127718 
L 568.285714 387.88145 
L 586.402597 394.350508 
L 604.519481 387.88145 
L 622.636364 387.88145 
" style="fill:none;stroke:#e377c2;stroke-linecap:square;stroke-width:1.5;"/>
   </g>
   <g id="line2d_81">
    <path clip-path="url(#pa6961db4c0)" d="M 115.363636 434.495186 
L 133.480519 412.452366 
L 151.597403 382.828522 
L 169.714286 438.138695 
L 187.831169 401.877638 
L 205.948052 368.866531 
L 224.064935 393.357918 
L 242.181818 392.219723 
L 260.298701 343.570704 
L 278.415584 353.997536 
L 296.532468 362.717212 
L 314.649351 342.178865 
L 332.766234 387.057606 
L 350.883117 398.26051 
L 369 360.670466 
L 387.116883 354.620265 
L 405.233766 379.535389 
L 423.350649 390.19909 
L 441.467532 375.390412 
L 459.584416 395.620651 
L 477.701299 360.398514 
L 495.818182 391.347847 
L 513.935065 387.88145 
L 532.051948 399.398674 
L 550.168831 396.127718 
L 568.285714 387.88145 
L 586.402597 394.350508 
L 604.519481 387.88145 
L 622.636364 387.88145 
" style="fill:none;stroke:#7f7f7f;stroke-linecap:square;stroke-width:1.5;"/>
   </g>
   <g id="line2d_82">
    <path clip-path="url(#pa6961db4c0)" d="M 115.363636 419.971925 
L 133.480519 415.809271 
L 151.597403 393.715323 
L 169.714286 407.163844 
L 187.831169 416.960724 
L 205.948052 395.474242 
L 224.064935 426.766788 
L 242.181818 392.219723 
L 260.298701 369.5538 
L 278.415584 354.687268 
L 296.532468 336.203506 
L 314.649351 395.104786 
L 332.766234 416.696392 
L 350.883117 417.208501 
L 369 389.827872 
L 387.116883 338.686054 
L 405.233766 425.198582 
L 423.350649 424.535304 
L 441.467532 409.074458 
L 459.584416 395.620651 
L 477.701299 409.878652 
L 495.818182 391.347847 
L 513.935065 387.88145 
L 532.051948 408.118894 
L 550.168831 396.127718 
L 568.285714 387.88145 
L 586.402597 394.350508 
L 604.519481 387.88145 
L 622.636364 387.88145 
" style="fill:none;stroke:#bcbd22;stroke-linecap:square;stroke-width:1.5;"/>
   </g>
   <g id="line2d_83">
    <path clip-path="url(#pa6961db4c0)" d="M 115.363636 469.366253 
L 133.480519 439.345611 
L 151.597403 349.11536 
L 169.714286 484.232727 
L 187.831169 431.409091 
L 205.948052 300.814138 
L 224.064935 408.207254 
L 242.181818 392.219723 
L 260.298701 279.000886 
L 278.415584 327.048591 
L 296.532468 341.058996 
L 314.649351 353.481957 
L 332.766234 421.108964 
L 350.883117 429.451942 
L 369 275.84353 
L 387.116883 361.608906 
L 405.233766 400.211139 
L 423.350649 403.649751 
L 441.467532 389.477175 
L 459.584416 395.620651 
L 477.701299 384.835861 
L 495.818182 391.347847 
L 513.935065 387.88145 
L 532.051948 399.051577 
L 550.168831 396.127718 
L 568.285714 387.88145 
L 586.402597 394.350508 
L 604.519481 387.88145 
L 622.636364 387.88145 
" style="fill:none;stroke:#17becf;stroke-linecap:square;stroke-width:1.5;"/>
   </g>
   <g id="line2d_84">
    <path clip-path="url(#pa6961db4c0)" d="M 115.363636 371.598023 
L 133.480519 345.758126 
L 151.597403 460.566897 
L 169.714286 355.030374 
L 187.831169 353.290575 
L 205.948052 448.005328 
L 224.064935 437.429496 
L 242.181818 392.219723 
L 260.298701 424.074389 
L 278.415584 425.603073 
L 296.532468 376.959322 
L 314.649351 426.113904 
L 332.766234 360.349379 
L 350.883117 339.803045 
L 369 441.63746 
L 387.116883 393.518453 
L 405.233766 432.369357 
L 423.350649 435.88454 
L 441.467532 411.635823 
L 459.584416 395.620651 
L 477.701299 418.592811 
L 495.818182 391.347847 
L 513.935065 387.88145 
L 532.051948 408.118894 
L 550.168831 396.127718 
L 568.285714 387.88145 
L 586.402597 394.350508 
L 604.519481 387.88145 
L 622.636364 387.88145 
" style="fill:none;stroke:#1f77b4;stroke-linecap:square;stroke-width:1.5;"/>
   </g>
   <g id="line2d_85">
    <path clip-path="url(#pa6961db4c0)" d="M 115.363636 363.618185 
L 133.480519 358.042003 
L 151.597403 408.534686 
L 169.714286 368.364619 
L 187.831169 359.270153 
L 205.948052 388.343422 
L 224.064935 389.564859 
L 242.181818 392.219723 
L 260.298701 413.48044 
L 278.415584 426.546257 
L 296.532468 402.826412 
L 314.649351 387.7136 
L 332.766234 361.951508 
L 350.883117 356.733537 
L 369 399.970851 
L 387.116883 450.943573 
L 405.233766 378.720295 
L 423.350649 395.127383 
L 441.467532 378.310864 
L 459.584416 317.25925 
L 477.701299 406.343994 
L 495.818182 391.347847 
L 513.935065 387.88145 
L 532.051948 389.966655 
L 550.168831 396.127718 
L 568.285714 387.88145 
L 586.402597 394.350508 
L 604.519481 387.88145 
L 622.636364 387.88145 
" style="fill:none;stroke:#ff7f0e;stroke-linecap:square;stroke-width:1.5;"/>
   </g>
   <g id="line2d_86">
    <path clip-path="url(#pa6961db4c0)" d="M 115.363636 405.951434 
L 133.480519 416.365466 
L 151.597403 365.233684 
L 169.714286 401.193496 
L 187.831169 421.483647 
L 205.948052 367.44194 
L 224.064935 395.737208 
L 242.181818 392.219723 
L 260.298701 364.62503 
L 278.415584 360.43202 
L 296.532468 361.033871 
L 314.649351 403.357339 
L 332.766234 422.723014 
L 350.883117 421.103012 
L 369 367.271361 
L 387.116883 370.396663 
L 405.233766 399.657807 
L 423.350649 393.480152 
L 441.467532 410.28284 
L 459.584416 372.86853 
L 477.701299 416.562975 
L 495.818182 391.347847 
L 513.935065 387.88145 
L 532.051948 392.307463 
L 550.168831 396.127718 
L 568.285714 387.88145 
L 586.402597 394.350508 
L 604.519481 387.88145 
L 622.636364 387.88145 
" style="fill:none;stroke:#2ca02c;stroke-linecap:square;stroke-width:1.5;"/>
   </g>
   <g id="line2d_87">
    <path clip-path="url(#pa6961db4c0)" d="M 115.363636 351.996742 
L 133.480519 340.290644 
L 151.597403 415.994065 
L 169.714286 363.357272 
L 187.831169 333.464698 
L 205.948052 403.166159 
L 224.064935 410.011821 
L 242.181818 392.219723 
L 260.298701 418.277493 
L 278.415584 435.696191 
L 296.532468 439.464281 
L 314.649351 353.128138 
L 332.766234 333.858973 
L 350.883117 334.535188 
L 369 416.620809 
L 387.116883 426.577715 
L 405.233766 386.272719 
L 423.350649 406.701552 
L 441.467532 359.064377 
L 459.584416 395.620651 
L 477.701299 334.369226 
L 495.818182 391.347847 
L 513.935065 387.88145 
L 532.051948 392.522029 
L 550.168831 396.127718 
L 568.285714 387.88145 
L 586.402597 394.350508 
L 604.519481 387.88145 
L 622.636364 387.88145 
" style="fill:none;stroke:#d62728;stroke-linecap:square;stroke-width:1.5;"/>
   </g>
   <g id="line2d_88">
    <path clip-path="url(#pa6961db4c0)" d="M 115.363636 355.98534 
L 133.480519 305.855381 
L 151.597403 468.518388 
L 169.714286 366.378625 
L 187.831169 300.305887 
L 205.948052 403.459363 
L 224.064935 319.645817 
L 242.181818 392.219723 
L 260.298701 435.52325 
L 278.415584 469.635181 
L 296.532468 430.54913 
L 314.649351 388.805279 
L 332.766234 298.959823 
L 350.883117 305.016378 
L 369 413.722804 
L 387.116883 432.014785 
L 405.233766 322.554553 
L 423.350649 333.311301 
L 441.467532 300.418472 
L 459.584416 395.620651 
L 477.701299 338.431198 
L 495.818182 391.347847 
L 513.935065 387.88145 
L 532.051948 347.207416 
L 550.168831 350.171062 
L 568.285714 387.88145 
L 586.402597 394.350508 
L 604.519481 387.88145 
L 622.636364 387.88145 
" style="fill:none;stroke:#9467bd;stroke-linecap:square;stroke-width:1.5;"/>
   </g>
   <g id="line2d_89">
    <path clip-path="url(#pa6961db4c0)" d="M 115.363636 468.160655 
L 133.480519 433.866104 
L 151.597403 377.470477 
L 169.714286 473.123485 
L 187.831169 420.996398 
L 205.948052 355.259286 
L 224.064935 405.932457 
L 242.181818 392.219723 
L 260.298701 308.565037 
L 278.415584 325.913287 
L 296.532468 330.531785 
L 314.649351 331.937585 
L 332.766234 402.224047 
L 350.883117 412.406402 
L 369 340.630321 
L 387.116883 346.141704 
L 405.233766 390.005222 
L 423.350649 397.889534 
L 441.467532 390.615607 
L 459.584416 395.620651 
L 477.701299 382.746639 
L 495.818182 391.347847 
L 513.935065 387.88145 
L 532.051948 400.155579 
L 550.168831 386.114079 
L 568.285714 387.88145 
L 586.402597 394.350508 
L 604.519481 387.88145 
L 622.636364 387.88145 
" style="fill:none;stroke:#8c564b;stroke-linecap:square;stroke-width:1.5;"/>
   </g>
   <g id="line2d_90">
    <path clip-path="url(#pa6961db4c0)" d="M 115.363636 428.91084 
L 133.480519 431.753965 
L 151.597403 353.800079 
L 169.714286 429.423767 
L 187.831169 425.744742 
L 205.948052 360.711903 
L 224.064935 420.27126 
L 242.181818 392.219723 
L 260.298701 332.4383 
L 278.415584 340.535917 
L 296.532468 354.642578 
L 314.649351 362.749798 
L 332.766234 418.120641 
L 350.883117 428.660525 
L 369 352.406473 
L 387.116883 361.383705 
L 405.233766 411.59901 
L 423.350649 419.813113 
L 441.467532 387.692656 
L 459.584416 395.620651 
L 477.701299 398.214637 
L 495.818182 391.347847 
L 513.935065 387.88145 
L 532.051948 408.118894 
L 550.168831 396.127718 
L 568.285714 387.88145 
L 586.402597 394.350508 
L 604.519481 387.88145 
L 622.636364 387.88145 
" style="fill:none;stroke:#e377c2;stroke-linecap:square;stroke-width:1.5;"/>
   </g>
   <g id="line2d_91">
    <path clip-path="url(#pa6961db4c0)" d="M 115.363636 416.795518 
L 133.480519 396.98646 
L 151.597403 401.66874 
L 169.714286 417.120624 
L 187.831169 386.809693 
L 205.948052 354.814838 
L 224.064935 412.935089 
L 242.181818 392.219723 
L 260.298701 366.17552 
L 278.415584 381.512853 
L 296.532468 366.815997 
L 314.649351 349.274095 
L 332.766234 375.42457 
L 350.883117 389.584159 
L 369 368.027895 
L 387.116883 326.777992 
L 405.233766 407.660264 
L 423.350649 409.813038 
L 441.467532 358.707643 
L 459.584416 395.620651 
L 477.701299 378.124068 
L 495.818182 391.347847 
L 513.935065 387.88145 
L 532.051948 408.118894 
L 550.168831 396.127718 
L 568.285714 387.88145 
L 586.402597 394.350508 
L 604.519481 387.88145 
L 622.636364 387.88145 
" style="fill:none;stroke:#7f7f7f;stroke-linecap:square;stroke-width:1.5;"/>
   </g>
   <g id="line2d_92">
    <path clip-path="url(#pa6961db4c0)" d="M 115.363636 430.13331 
L 133.480519 405.70364 
L 151.597403 372.077471 
L 169.714286 442.226361 
L 187.831169 399.10369 
L 205.948052 304.298703 
L 224.064935 334.357013 
L 242.181818 392.219723 
L 260.298701 347.76261 
L 278.415584 374.884793 
L 296.532468 373.992867 
L 314.649351 350.04461 
L 332.766234 390.352548 
L 350.883117 397.677068 
L 369 305.944023 
L 387.116883 388.55537 
L 405.233766 349.188652 
L 423.350649 342.266278 
L 441.467532 381.006933 
L 459.584416 395.620651 
L 477.701299 364.898701 
L 495.818182 391.347847 
L 513.935065 387.88145 
L 532.051948 361.211703 
L 550.168831 396.127718 
L 568.285714 387.88145 
L 586.402597 171.825295 
L 604.519481 387.88145 
L 622.636364 387.88145 
" style="fill:none;stroke:#bcbd22;stroke-linecap:square;stroke-width:1.5;"/>
   </g>
   <g id="line2d_93">
    <path clip-path="url(#pa6961db4c0)" d="M 115.363636 365.65516 
L 133.480519 360.792451 
L 151.597403 415.943218 
L 169.714286 358.037114 
L 187.831169 368.504621 
L 205.948052 428.505865 
L 224.064935 389.896365 
L 242.181818 392.219723 
L 260.298701 407.581779 
L 278.415584 408.535257 
L 296.532468 398.700855 
L 314.649351 419.856885 
L 332.766234 375.956072 
L 350.883117 365.688106 
L 369 424.575195 
L 387.116883 411.89005 
L 405.233766 398.271761 
L 423.350649 391.362175 
L 441.467532 397.026933 
L 459.584416 395.620651 
L 477.701299 406.763909 
L 495.818182 391.347847 
L 513.935065 387.88145 
L 532.051948 393.697679 
L 550.168831 396.127718 
L 568.285714 387.88145 
L 586.402597 394.350508 
L 604.519481 387.88145 
L 622.636364 387.88145 
" style="fill:none;stroke:#17becf;stroke-linecap:square;stroke-width:1.5;"/>
   </g>
   <g id="line2d_94">
    <path clip-path="url(#pa6961db4c0)" d="M 115.363636 395.81522 
L 133.480519 396.306875 
L 151.597403 386.546966 
L 169.714286 392.550255 
L 187.831169 399.428036 
L 205.948052 398.42612 
L 224.064935 383.330105 
L 242.181818 392.219723 
L 260.298701 380.880526 
L 278.415584 376.331974 
L 296.532468 372.42798 
L 314.649351 388.58099 
L 332.766234 401.86387 
L 350.883117 395.506943 
L 369 392.337009 
L 387.116883 381.652258 
L 405.233766 391.706708 
L 423.350649 378.979352 
L 441.467532 417.375431 
L 459.584416 395.620651 
L 477.701299 407.607881 
L 495.818182 391.347847 
L 513.935065 387.88145 
L 532.051948 379.154121 
L 550.168831 396.127718 
L 568.285714 387.88145 
L 586.402597 394.350508 
L 604.519481 387.88145 
L 622.636364 387.88145 
" style="fill:none;stroke:#1f77b4;stroke-linecap:square;stroke-width:1.5;"/>
   </g>
   <g id="line2d_95">
    <path clip-path="url(#pa6961db4c0)" d="M 115.363636 362.801946 
L 133.480519 375.45356 
L 151.597403 391.000274 
L 169.714286 360.746651 
L 187.831169 379.647915 
L 205.948052 441.080149 
L 224.064935 408.351732 
L 242.181818 392.219723 
L 260.298701 412.747981 
L 278.415584 391.139549 
L 296.532468 402.168447 
L 314.649351 408.713252 
L 332.766234 384.554935 
L 350.883117 379.699122 
L 369 433.144163 
L 387.116883 430.844412 
L 405.233766 409.555096 
L 423.350649 404.934577 
L 441.467532 398.468387 
L 459.584416 395.620651 
L 477.701299 408.376475 
L 495.818182 391.347847 
L 513.935065 387.88145 
L 532.051948 408.118894 
L 550.168831 396.127718 
L 568.285714 387.88145 
L 586.402597 394.350508 
L 604.519481 387.88145 
L 622.636364 387.88145 
" style="fill:none;stroke:#ff7f0e;stroke-linecap:square;stroke-width:1.5;"/>
   </g>
   <g id="line2d_96">
    <path clip-path="url(#pa6961db4c0)" d="M 115.363636 374.367406 
L 133.480519 383.761575 
L 151.597403 395.11699 
L 169.714286 367.290409 
L 187.831169 390.889856 
L 205.948052 397.960331 
L 224.064935 407.679465 
L 242.181818 392.219723 
L 260.298701 401.410857 
L 278.415584 395.47694 
L 296.532468 382.736907 
L 314.649351 425.727861 
L 332.766234 398.863583 
L 350.883117 389.826149 
L 369 399.221706 
L 387.116883 413.519169 
L 405.233766 419.864865 
L 423.350649 412.135404 
L 441.467532 403.333166 
L 459.584416 395.620651 
L 477.701299 400.170066 
L 495.818182 391.347847 
L 513.935065 387.88145 
L 532.051948 408.118894 
L 550.168831 396.127718 
L 568.285714 387.88145 
L 586.402597 273.923143 
L 604.519481 387.88145 
L 622.636364 387.88145 
" style="fill:none;stroke:#2ca02c;stroke-linecap:square;stroke-width:1.5;"/>
   </g>
   <g id="line2d_97">
    <path clip-path="url(#pa6961db4c0)" d="M 115.363636 390.405972 
L 133.480519 416.976821 
L 151.597403 338.205485 
L 169.714286 391.028428 
L 187.831169 412.962442 
L 205.948052 375.100185 
L 224.064935 404.392338 
L 242.181818 392.219723 
L 260.298701 372.566509 
L 278.415584 362.982447 
L 296.532468 395.024755 
L 314.649351 382.004483 
L 332.766234 408.445137 
L 350.883117 416.941416 
L 369 375.298115 
L 387.116883 389.60072 
L 405.233766 399.89717 
L 423.350649 404.507177 
L 441.467532 382.222516 
L 459.584416 395.620651 
L 477.701299 387.082288 
L 495.818182 391.347847 
L 513.935065 387.88145 
L 532.051948 396.553618 
L 550.168831 396.127718 
L 568.285714 387.88145 
L 586.402597 394.350508 
L 604.519481 387.88145 
L 622.636364 387.88145 
" style="fill:none;stroke:#d62728;stroke-linecap:square;stroke-width:1.5;"/>
   </g>
   <g id="line2d_98">
    <path clip-path="url(#pa6961db4c0)" d="M 115.363636 370.542692 
L 133.480519 371.132202 
L 151.597403 405.146804 
L 169.714286 370.927332 
L 187.831169 364.905521 
L 205.948052 400.021246 
L 224.064935 404.120634 
L 242.181818 392.219723 
L 260.298701 415.939701 
L 278.415584 416.036147 
L 296.532468 402.937641 
L 314.649351 371.909974 
L 332.766234 358.665798 
L 350.883117 363.535323 
L 369 402.647208 
L 387.116883 415.180584 
L 405.233766 384.122048 
L 423.350649 404.249123 
L 441.467532 352.141451 
L 459.584416 395.620651 
L 477.701299 389.08069 
L 495.818182 391.347847 
L 513.935065 387.88145 
L 532.051948 408.118894 
L 550.168831 396.127718 
L 568.285714 387.88145 
L 586.402597 394.350508 
L 604.519481 387.88145 
L 622.636364 387.88145 
" style="fill:none;stroke:#9467bd;stroke-linecap:square;stroke-width:1.5;"/>
   </g>
   <g id="line2d_99">
    <path clip-path="url(#pa6961db4c0)" d="M 115.363636 374.64086 
L 133.480519 339.566435 
L 151.597403 433.714758 
L 169.714286 379.602622 
L 187.831169 339.964804 
L 205.948052 406.341916 
L 224.064935 355.740405 
L 242.181818 392.219723 
L 260.298701 401.182389 
L 278.415584 423.469813 
L 296.532468 415.314853 
L 314.649351 399.491692 
L 332.766234 344.101757 
L 350.883117 341.83297 
L 369 403.463722 
L 387.116883 412.012523 
L 405.233766 351.158562 
L 423.350649 345.155441 
L 441.467532 358.786275 
L 459.584416 395.620651 
L 477.701299 350.411075 
L 495.818182 391.347847 
L 513.935065 387.88145 
L 532.051948 286.893339 
L 550.168831 396.127718 
L 568.285714 387.88145 
L 586.402597 394.350508 
L 604.519481 387.88145 
L 622.636364 387.88145 
" style="fill:none;stroke:#8c564b;stroke-linecap:square;stroke-width:1.5;"/>
   </g>
   <g id="line2d_100">
    <path clip-path="url(#pa6961db4c0)" d="M 115.363636 386.018853 
L 133.480519 368.349862 
L 151.597403 408.635188 
L 169.714286 391.16027 
L 187.831169 362.414159 
L 205.948052 395.000887 
L 224.064935 357.437453 
L 242.181818 392.219723 
L 260.298701 399.059805 
L 278.415584 406.040477 
L 296.532468 403.195617 
L 314.649351 366.016381 
L 332.766234 353.819875 
L 350.883117 358.941527 
L 369 394.044355 
L 387.116883 408.084609 
L 405.233766 354.903934 
L 423.350649 359.596944 
L 441.467532 369.93125 
L 459.584416 395.620651 
L 477.701299 364.174631 
L 495.818182 391.347847 
L 513.935065 387.88145 
L 532.051948 371.715366 
L 550.168831 396.127718 
L 568.285714 387.88145 
L 586.402597 394.350508 
L 604.519481 387.88145 
L 622.636364 387.88145 
" style="fill:none;stroke:#e377c2;stroke-linecap:square;stroke-width:1.5;"/>
   </g>
   <g id="line2d_101">
    <path clip-path="url(#pa6961db4c0)" d="M 115.363636 393.044184 
L 133.480519 372.088896 
L 151.597403 418.141689 
L 169.714286 392.144977 
L 187.831169 366.777824 
L 205.948052 399.288644 
L 224.064935 388.561908 
L 242.181818 392.219723 
L 260.298701 396.827395 
L 278.415584 404.534245 
L 296.532468 387.808498 
L 314.649351 368.62009 
L 332.766234 360.357218 
L 350.883117 357.797787 
L 369 395.969434 
L 387.116883 378.195137 
L 405.233766 381.704129 
L 423.350649 383.003667 
L 441.467532 386.410491 
L 459.584416 375.619807 
L 477.701299 386.784868 
L 495.818182 391.347847 
L 513.935065 387.88145 
L 532.051948 394.219444 
L 550.168831 396.127718 
L 568.285714 387.88145 
L 586.402597 394.350508 
L 604.519481 387.88145 
L 622.636364 387.88145 
" style="fill:none;stroke:#7f7f7f;stroke-linecap:square;stroke-width:1.5;"/>
   </g>
   <g id="line2d_102">
    <path clip-path="url(#pa6961db4c0)" d="M 115.363636 368.110567 
L 133.480519 363.604949 
L 151.597403 391.112326 
L 169.714286 374.405384 
L 187.831169 365.423064 
L 205.948052 397.028631 
L 224.064935 389.758673 
L 242.181818 392.219723 
L 260.298701 398.249735 
L 278.415584 409.470082 
L 296.532468 421.927444 
L 314.649351 375.114388 
L 332.766234 367.638034 
L 350.883117 356.413552 
L 369 397.524702 
L 387.116883 405.4297 
L 405.233766 362.907984 
L 423.350649 385.144387 
L 441.467532 404.093211 
L 459.584416 395.620651 
L 477.701299 398.355278 
L 495.818182 391.347847 
L 513.935065 387.88145 
L 532.051948 408.118894 
L 550.168831 259.726775 
L 568.285714 387.88145 
L 586.402597 394.350508 
L 604.519481 387.88145 
L 622.636364 387.88145 
" style="fill:none;stroke:#bcbd22;stroke-linecap:square;stroke-width:1.5;"/>
   </g>
   <g id="line2d_103">
    <path clip-path="url(#pa6961db4c0)" d="M 115.363636 400.382785 
L 133.480519 409.04122 
L 151.597403 383.627115 
L 169.714286 388.954395 
L 187.831169 410.752175 
L 205.948052 422.296619 
L 224.064935 394.800939 
L 242.181818 392.219723 
L 260.298701 386.116966 
L 278.415584 360.57005 
L 296.532468 360.780175 
L 314.649351 397.001202 
L 332.766234 410.409159 
L 350.883117 408.329103 
L 369 411.056525 
L 387.116883 374.760836 
L 405.233766 379.128559 
L 423.350649 396.993194 
L 441.467532 413.985782 
L 459.584416 395.620651 
L 477.701299 414.379023 
L 495.818182 391.347847 
L 513.935065 387.88145 
L 532.051948 380.40489 
L 550.168831 396.127718 
L 568.285714 387.88145 
L 586.402597 394.350508 
L 604.519481 387.88145 
L 622.636364 387.88145 
" style="fill:none;stroke:#17becf;stroke-linecap:square;stroke-width:1.5;"/>
   </g>
   <g id="line2d_104">
    <path clip-path="url(#pa6961db4c0)" d="M 115.363636 419.805813 
L 133.480519 440.878694 
L 151.597403 338.398679 
L 169.714286 414.078924 
L 187.831169 441.979591 
L 205.948052 341.028125 
L 224.064935 407.906507 
L 242.181818 392.219723 
L 260.298701 343.773667 
L 278.415584 335.688462 
L 296.532468 360.89611 
L 314.649351 411.795741 
L 332.766234 442.83463 
L 350.883117 444.126102 
L 369 344.978273 
L 387.116883 327.224173 
L 405.233766 397.623983 
L 423.350649 398.175914 
L 441.467532 396.406833 
L 459.584416 395.620651 
L 477.701299 400.679889 
L 495.818182 391.347847 
L 513.935065 387.88145 
L 532.051948 408.118894 
L 550.168831 396.127718 
L 568.285714 387.88145 
L 586.402597 394.350508 
L 604.519481 387.88145 
L 622.636364 387.88145 
" style="fill:none;stroke:#1f77b4;stroke-linecap:square;stroke-width:1.5;"/>
   </g>
   <g id="line2d_105">
    <path clip-path="url(#pa6961db4c0)" d="M 115.363636 370.409853 
L 133.480519 368.795502 
L 151.597403 364.880794 
L 169.714286 380.440945 
L 187.831169 374.830528 
L 205.948052 409.593138 
L 224.064935 342.970508 
L 242.181818 392.219723 
L 260.298701 380.155998 
L 278.415584 376.407036 
L 296.532468 443.573202 
L 314.649351 375.982087 
L 332.766234 383.119782 
L 350.883117 369.937155 
L 369 411.205529 
L 387.116883 410.927363 
L 405.233766 347.669897 
L 423.350649 355.451885 
L 441.467532 419.532552 
L 459.584416 395.620651 
L 477.701299 352.761942 
L 495.818182 391.347847 
L 513.935065 387.88145 
L 532.051948 408.118894 
L 550.168831 396.127718 
L 568.285714 387.88145 
L 586.402597 394.350508 
L 604.519481 387.88145 
L 622.636364 387.88145 
" style="fill:none;stroke:#ff7f0e;stroke-linecap:square;stroke-width:1.5;"/>
   </g>
   <g id="line2d_106">
    <path clip-path="url(#pa6961db4c0)" d="M 115.363636 415.564211 
L 133.480519 410.342125 
L 151.597403 381.215906 
L 169.714286 409.343051 
L 187.831169 410.927053 
L 205.948052 383.119436 
L 224.064935 391.214367 
L 242.181818 392.219723 
L 260.298701 365.157249 
L 278.415584 357.992568 
L 296.532468 360.270229 
L 314.649351 377.976437 
L 332.766234 411.127262 
L 350.883117 404.694473 
L 369 381.999135 
L 387.116883 362.737264 
L 405.233766 401.28923 
L 423.350649 389.973189 
L 441.467532 409.832849 
L 459.584416 395.620651 
L 477.701299 387.146013 
L 495.818182 391.347847 
L 513.935065 387.88145 
L 532.051948 390.592216 
L 550.168831 396.127718 
L 568.285714 387.88145 
L 586.402597 394.350508 
L 604.519481 387.88145 
L 622.636364 387.88145 
" style="fill:none;stroke:#2ca02c;stroke-linecap:square;stroke-width:1.5;"/>
   </g>
   <g id="line2d_107">
    <path clip-path="url(#pa6961db4c0)" d="M 115.363636 391.205205 
L 133.480519 411.769487 
L 151.597403 387.096335 
L 169.714286 382.073995 
L 187.831169 413.430626 
L 205.948052 336.158862 
L 224.064935 379.473546 
L 242.181818 392.219723 
L 260.298701 397.752149 
L 278.415584 398.539252 
L 296.532468 355.101658 
L 314.649351 395.167303 
L 332.766234 406.94089 
L 350.883117 413.953947 
L 369 358.04724 
L 387.116883 360.862132 
L 405.233766 403.137399 
L 423.350649 392.703291 
L 441.467532 355.04645 
L 459.584416 395.620651 
L 477.701299 411.914494 
L 495.818182 391.347847 
L 513.935065 387.88145 
L 532.051948 408.118894 
L 550.168831 396.127718 
L 568.285714 387.88145 
L 586.402597 394.350508 
L 604.519481 387.88145 
L 622.636364 387.88145 
" style="fill:none;stroke:#d62728;stroke-linecap:square;stroke-width:1.5;"/>
   </g>
   <g id="line2d_108">
    <path clip-path="url(#pa6961db4c0)" d="M 115.363636 415.449655 
L 133.480519 399.64804 
L 151.597403 393.895592 
L 169.714286 414.333631 
L 187.831169 397.722099 
L 205.948052 385.250607 
L 224.064935 371.108017 
L 242.181818 392.219723 
L 260.298701 374.233233 
L 278.415584 370.142557 
L 296.532468 353.799316 
L 314.649351 339.007261 
L 332.766234 393.587649 
L 350.883117 402.040848 
L 369 384.851593 
L 387.116883 397.653327 
L 405.233766 387.767513 
L 423.350649 375.881638 
L 441.467532 397.645534 
L 459.584416 314.18719 
L 477.701299 363.871918 
L 495.818182 391.347847 
L 513.935065 387.88145 
L 532.051948 408.118894 
L 550.168831 396.127718 
L 568.285714 387.88145 
L 586.402597 394.350508 
L 604.519481 387.88145 
L 622.636364 387.88145 
" style="fill:none;stroke:#9467bd;stroke-linecap:square;stroke-width:1.5;"/>
   </g>
   <g id="line2d_109">
    <path clip-path="url(#pa6961db4c0)" d="M 115.363636 386.897483 
L 133.480519 364.064121 
L 151.597403 418.006308 
L 169.714286 398.141874 
L 187.831169 337.767591 
L 205.948052 373.809531 
L 224.064935 331.146735 
L 242.181818 392.219723 
L 260.298701 424.873121 
L 278.415584 421.847635 
L 296.532468 418.024593 
L 314.649351 281.493966 
L 332.766234 319.26672 
L 350.883117 356.38467 
L 369 396.28448 
L 387.116883 327.629752 
L 405.233766 337.06776 
L 423.350649 307.675213 
L 441.467532 247.20852 
L 459.584416 395.620651 
L 477.701299 289.510158 
L 495.818182 391.347847 
L 513.935065 387.88145 
L 532.051948 367.812099 
L 550.168831 396.127718 
L 568.285714 387.88145 
L 586.402597 394.350508 
L 604.519481 387.88145 
L 622.636364 387.88145 
" style="fill:none;stroke:#8c564b;stroke-linecap:square;stroke-width:1.5;"/>
   </g>
   <g id="line2d_110">
    <path clip-path="url(#pa6961db4c0)" d="M 115.363636 373.446011 
L 133.480519 374.227686 
L 151.597403 379.005292 
L 169.714286 380.836473 
L 187.831169 377.238136 
L 205.948052 361.582875 
L 224.064935 437.429496 
L 242.181818 392.219723 
L 260.298701 381.968641 
L 278.415584 401.212079 
L 296.532468 413.655203 
L 314.649351 405.921169 
L 332.766234 388.590413 
L 350.883117 375.897871 
L 369 364.56116 
L 387.116883 432.046529 
L 405.233766 432.369357 
L 423.350649 435.88454 
L 441.467532 406.237866 
L 459.584416 395.620651 
L 477.701299 360.104664 
L 495.818182 391.347847 
L 513.935065 387.88145 
L 532.051948 408.118894 
L 550.168831 396.127718 
L 568.285714 387.88145 
L 586.402597 394.350508 
L 604.519481 387.88145 
L 622.636364 387.88145 
" style="fill:none;stroke:#e377c2;stroke-linecap:square;stroke-width:1.5;"/>
   </g>
   <g id="line2d_111">
    <path clip-path="url(#pa6961db4c0)" d="M 115.363636 377.441201 
L 133.480519 405.458559 
L 151.597403 353.663954 
L 169.714286 377.521121 
L 187.831169 414.029068 
L 205.948052 361.031009 
L 224.064935 398.695388 
L 242.181818 392.219723 
L 260.298701 392.415702 
L 278.415584 378.4278 
L 296.532468 391.43117 
L 314.649351 424.722699 
L 332.766234 422.719009 
L 350.883117 418.167396 
L 369 357.080904 
L 387.116883 401.140345 
L 405.233766 408.925197 
L 423.350649 402.902108 
L 441.467532 422.186791 
L 459.584416 395.620651 
L 477.701299 404.082382 
L 495.818182 391.347847 
L 513.935065 387.88145 
L 532.051948 390.491413 
L 550.168831 396.127718 
L 568.285714 387.88145 
L 586.402597 394.350508 
L 604.519481 387.88145 
L 622.636364 387.88145 
" style="fill:none;stroke:#7f7f7f;stroke-linecap:square;stroke-width:1.5;"/>
   </g>
   <g id="line2d_112">
    <path clip-path="url(#pa6961db4c0)" d="M 115.363636 406.822454 
L 133.480519 411.168966 
L 151.597403 348.309629 
L 169.714286 417.916573 
L 187.831169 416.151667 
L 205.948052 330.417513 
L 224.064935 395.097813 
L 242.181818 392.219723 
L 260.298701 344.979436 
L 278.415584 364.050302 
L 296.532468 383.728875 
L 314.649351 427.021004 
L 332.766234 419.573876 
L 350.883117 420.096224 
L 369 309.936635 
L 387.116883 407.425576 
L 405.233766 395.767037 
L 423.350649 399.838742 
L 441.467532 402.415536 
L 459.584416 395.620651 
L 477.701299 408.477888 
L 495.818182 391.347847 
L 513.935065 387.88145 
L 532.051948 394.358395 
L 550.168831 292.307133 
L 568.285714 387.88145 
L 586.402597 394.350508 
L 604.519481 387.88145 
L 622.636364 387.88145 
" style="fill:none;stroke:#bcbd22;stroke-linecap:square;stroke-width:1.5;"/>
   </g>
   <g id="line2d_113">
    <path clip-path="url(#pa6961db4c0)" d="M 115.363636 377.039858 
L 133.480519 424.977527 
L 151.597403 330.540256 
L 169.714286 374.8601 
L 187.831169 431.287396 
L 205.948052 408.133767 
L 224.064935 425.350658 
L 242.181818 392.219723 
L 260.298701 387.898003 
L 278.415584 351.679237 
L 296.532468 387.785418 
L 314.649351 430.146979 
L 332.766234 434.378423 
L 350.883117 430.491684 
L 369 390.554298 
L 387.116883 414.227135 
L 405.233766 428.307789 
L 423.350649 425.599304 
L 441.467532 412.17149 
L 459.584416 395.620651 
L 477.701299 431.505185 
L 495.818182 391.347847 
L 513.935065 387.88145 
L 532.051948 408.118894 
L 550.168831 396.127718 
L 568.285714 387.88145 
L 586.402597 394.350508 
L 604.519481 387.88145 
L 622.636364 387.88145 
" style="fill:none;stroke:#17becf;stroke-linecap:square;stroke-width:1.5;"/>
   </g>
   <g id="patch_3">
    <path d="M 90 504 
L 90 69.12 
" style="fill:none;stroke:#000000;stroke-linecap:square;stroke-linejoin:miter;stroke-width:0.8;"/>
   </g>
   <g id="patch_4">
    <path d="M 648 504 
L 648 69.12 
" style="fill:none;stroke:#000000;stroke-linecap:square;stroke-linejoin:miter;stroke-width:0.8;"/>
   </g>
   <g id="patch_5">
    <path d="M 90 504 
L 648 504 
" style="fill:none;stroke:#000000;stroke-linecap:square;stroke-linejoin:miter;stroke-width:0.8;"/>
   </g>
   <g id="patch_6">
    <path d="M 90 69.12 
L 648 69.12 
" style="fill:none;stroke:#000000;stroke-linecap:square;stroke-linejoin:miter;stroke-width:0.8;"/>
   </g>
  </g>
 </g>
 <defs>
  <clipPath id="pa6961db4c0">
   <rect height="434.88" width="558" x="90" y="69.12"/>
  </clipPath>
 </defs>
</svg>
